<svg width="188" height="91" viewBox="0 0 188 91" fill="none" xmlns="http://www.w3.org/2000/svg">
<g clip-path="url(#clip0_165_1328)">
<path d="M76.5124 41.1822H59.895C59.6652 41.1822 59.4297 40.9487 59.4297 40.7095L59.6595 20.2948L59.4297 0.466912C59.4297 0.233374 59.6595 -0.00585938 59.895 -0.00585938H76.3386C84.5633 -0.00585938 90.4668 3.17253 90.4668 10.0534C90.4668 15.1114 87.8598 17.9367 83.0551 19.2297C88.9026 20.4657 91.5657 24.1169 91.6273 28.8218C91.6273 37.645 84.4455 41.1765 76.5124 41.1765V41.1822ZM66.4377 16.9456H76.3386C80.6836 16.9456 83.3467 15.1228 83.3467 11.1812C83.3467 7.23951 80.3921 5.35412 76.3386 5.35412H66.6115L66.4377 16.9456ZM66.6115 35.8336H76.3386C81.0312 35.8336 84.4455 34.1248 84.4455 28.8332C84.4455 24.0087 80.6836 22.2429 76.3386 22.2429H66.4377L66.6115 35.8336Z" fill="#31BF84"/>
<path d="M121.455 30.8269C121.685 30.8269 121.921 31.0604 121.859 31.2996C121.046 37.1267 116.124 41.8886 108.134 41.8886C98.5195 41.8886 93.3672 35.3609 93.3672 26.1219C93.3672 16.883 98.8671 10.1787 107.905 10.1787C116.942 10.1787 122.38 16.5355 122.554 26.8852C122.554 27.1187 122.324 27.358 122.089 27.358H100.314C100.605 33.8287 103.206 36.8875 108.247 36.8875C111.896 36.8875 114.268 35.0647 115.081 31.2996C115.137 31.0034 115.428 30.8269 115.658 30.8269H121.45H121.455ZM107.961 15.1229C103.79 15.1229 101.3 17.7089 100.549 22.5961H115.025C114.733 18.6544 112.536 15.1229 107.961 15.1229Z" fill="#31BF84"/>
<path d="M146.24 41.1825C146.01 41.1825 145.775 40.9489 145.775 40.7097L145.893 37.0016C143.863 40.0034 140.74 41.7634 136.743 41.7634C128.462 41.7634 124.117 34.9396 124.117 26.1164C124.117 17.2932 128.866 10.2871 136.855 10.2871C140.791 10.2871 143.863 11.8193 145.887 14.7585L145.713 11.3466C145.713 11.113 145.943 10.8738 146.178 10.8738H152.317C152.547 10.8738 152.783 11.1073 152.783 11.3466L152.609 25.9398L152.783 40.7097C152.783 40.9432 152.553 41.1825 152.317 41.1825H146.235H146.24ZM138.593 36.7737C143.286 36.7737 146.005 33.2422 146.066 26.2417C146.122 19.2413 143.459 15.3566 138.767 15.2996C133.671 15.2427 131.181 19.1843 131.181 25.655C131.181 32.7124 133.727 36.7737 138.593 36.7737Z" fill="#31BF84"/>
<path d="M156.379 41.182C156.15 41.182 155.914 40.9485 155.914 40.7092L156.088 25.8824L155.914 11.3518C155.914 11.1183 156.144 10.879 156.379 10.879H162.401C162.631 10.879 162.866 11.1126 162.866 11.3518L162.692 16.1764C164.896 12.5309 168.831 10.6455 173.058 10.6455C173.636 10.6455 174.157 10.7025 174.623 10.7651C174.853 10.8221 175.088 11.1183 175.088 11.3518V15.9428C175.088 16.1764 174.858 16.3529 174.623 16.3529C174.219 16.296 173.698 16.296 173.232 16.296C167.615 16.296 163.096 19.5883 162.866 26.4748L162.922 40.7149C162.922 40.9485 162.692 41.1877 162.457 41.1877H156.374L156.379 41.182Z" fill="#31BF84"/>
<path d="M75.0685 90.886C71.1328 90.886 68.0604 89.3537 66.0365 86.4146L66.2103 89.8265C66.2103 90.06 65.9805 90.2993 65.745 90.2993H59.606C59.3761 90.2993 59.1406 90.0657 59.1406 89.8265L59.3144 68.8195L59.1406 49.5782C59.1406 49.3447 59.3705 49.1055 59.606 49.1055H65.745C65.9748 49.1055 66.2103 49.339 66.2103 49.5782L66.1543 63.9323C68.2398 61.0501 71.2505 59.4039 75.1862 59.4039C83.4669 59.4039 87.8118 66.2278 87.8118 75.0567C87.8118 83.8855 83.0632 90.886 75.0741 90.886H75.0685ZM73.1567 85.7652C78.2529 85.8848 80.6861 81.8235 80.6861 75.4098C80.6861 68.5233 78.1968 64.4677 73.3305 64.5247C68.6379 64.5247 65.9188 67.9936 65.8571 74.8231C65.8011 81.8235 68.4641 85.7083 73.1567 85.7652Z" fill="#31BF84"/>
<path d="M117.518 79.9382C117.748 79.9382 117.983 80.1717 117.922 80.411C117.109 86.238 112.186 90.9999 104.197 90.9999C94.582 90.9999 89.4297 84.4723 89.4297 75.2333C89.4297 65.9943 94.9296 59.29 103.967 59.29C113.005 59.29 118.443 65.6468 118.617 75.9965C118.617 76.2301 118.387 76.4693 118.151 76.4693H96.376C96.6676 82.94 99.269 85.9988 104.309 85.9988C107.959 85.9988 110.33 84.1761 111.143 80.411C111.199 80.1148 111.491 79.9382 111.721 79.9382H117.512H117.518ZM104.029 64.2342C99.8576 64.2342 97.3684 66.8202 96.6171 71.7074H111.093C110.801 67.7658 108.604 64.2342 104.029 64.2342Z" fill="#31BF84"/>
<path d="M136.802 89.3539C136.802 89.6501 136.629 89.8836 136.337 89.9406C134.891 90.4133 133.153 90.8235 131.532 90.8235C126.84 90.8235 122.613 88.4083 122.613 81.6471L122.669 65.2881H119.254C119.025 65.2881 118.789 65.0546 118.789 64.8153V60.4636C118.789 60.23 119.019 59.9908 119.254 59.9908H122.669L122.613 52.8707C122.613 52.6372 122.843 52.3979 123.078 52.3979H129.155C129.385 52.3979 129.621 52.6315 129.621 52.8707L129.565 59.9908H136.337C136.567 59.9908 136.802 60.2243 136.802 60.4636V64.8153C136.802 65.0489 136.573 65.2881 136.337 65.2881H129.565V81.4706C129.565 84.5293 130.837 85.4692 133.041 85.4692C134.375 85.4692 135.474 85.2356 136.343 84.9964C136.573 84.9395 136.808 85.116 136.808 85.3496V89.3482L136.802 89.3539Z" fill="#31BF84"/>
<path d="M159.154 90.2938C158.924 90.2938 158.689 90.0602 158.689 89.821L158.807 86.1129C156.777 89.1147 153.654 90.8805 149.657 90.8805C141.376 90.8805 137.031 84.0566 137.031 75.2277C137.031 66.3989 141.78 59.3984 149.769 59.3984C153.705 59.3984 156.777 60.9307 158.801 63.8698L158.627 60.4579C158.627 60.2244 158.857 59.9851 159.092 59.9851H165.232C165.461 59.9851 165.697 60.2187 165.697 60.4579L165.523 75.0512L165.697 89.821C165.697 90.0545 165.467 90.2938 165.232 90.2938H159.149H159.154ZM151.513 85.885C156.205 85.885 158.924 82.3535 158.986 75.3531C159.042 68.3526 156.379 64.4679 151.686 64.411C146.59 64.354 144.101 68.2957 144.101 74.7664C144.101 81.8238 146.646 85.885 151.513 85.885Z" fill="#31BF84"/>
<path d="M169.293 90.2933C169.064 90.2933 168.828 90.0598 168.828 89.8206L169.002 74.9938L168.828 60.4631C168.828 60.2296 169.058 59.9904 169.293 59.9904H175.315C175.545 59.9904 175.78 60.2239 175.78 60.4631L175.606 65.2877C177.81 61.6422 181.745 59.7568 185.973 59.7568C186.55 59.7568 187.071 59.8138 187.537 59.8765C187.767 59.9334 188.002 60.2296 188.002 60.4631V65.0542C188.002 65.2877 187.772 65.47 187.537 65.47C187.133 65.413 186.612 65.413 186.146 65.413C180.529 65.413 176.01 68.7053 175.78 75.5918L175.836 89.832C175.836 90.0655 175.606 90.3047 175.371 90.3047H169.288L169.293 90.2933Z" fill="#31BF84"/>
<path d="M44.0139 88.756C40.123 89.0636 39.1699 83.6239 38.9064 80.5708C38.6654 77.7456 38.2673 71.5995 39.5848 69.3667C42.6347 64.189 48.5271 67.4016 48.6616 73.2343C48.7065 75.0627 48.5663 78.4576 48.4317 80.3088C48.2131 83.2821 47.6468 88.4712 44.0083 88.7617L44.0139 88.756Z" fill="#31BF84"/>
<path d="M22.5351 83.6864C19.0143 81.9775 20.8644 76.7771 22.1427 74.0031C23.3256 71.4342 26.0055 65.909 28.248 64.6445C33.4396 61.7053 36.9548 67.4811 34.2077 72.6076C33.3443 74.2138 31.5558 77.0846 30.5299 78.6169C28.876 81.0833 25.8317 85.2869 22.5407 83.6864H22.5351Z" fill="#31BF84"/>
<path d="M6.43027 68.3811C4.22134 65.1116 8.3813 61.5516 10.8537 59.7972C13.1412 58.1738 18.1813 54.7505 20.7491 54.7904C26.6919 54.8872 26.8937 61.6712 21.9881 64.7129C20.4519 65.6641 17.4861 67.2419 15.8434 68.0451C13.1972 69.3438 8.49343 71.4342 6.42466 68.3811H6.43027Z" fill="#31BF84"/>
<path d="M0.0123098 46.9472C-0.290437 42.9941 5.06369 42.0258 8.06873 41.7581C10.8495 41.5132 16.8988 41.1087 19.0966 42.4473C24.1928 45.546 21.0308 51.5325 15.2898 51.6692C13.4901 51.7148 10.1487 51.5724 8.32663 51.4357C5.40008 51.2135 0.292631 50.6382 0.00670338 46.9415L0.0123098 46.9472Z" fill="#31BF84"/>
<path d="M5.00474 25.1253C6.68667 21.5481 11.8053 23.4278 14.5357 24.7265C17.0641 25.9284 22.5024 28.6511 23.747 30.9295C26.6399 36.2041 20.955 39.7755 15.9092 36.9844C14.3282 36.1072 11.5026 34.2902 9.99446 33.2478C7.56688 31.5675 3.42934 28.4745 5.00474 25.1309V25.1253Z" fill="#31BF84"/>
<path d="M20.0688 8.76644C23.2869 6.5222 26.7909 10.7487 28.5177 13.2606C30.1155 15.5846 33.485 20.7054 33.4457 23.3141C33.3504 29.3519 26.6732 29.557 23.6793 24.573C22.7431 23.0123 21.1901 19.999 20.3996 18.3301C19.1213 15.6416 17.0638 10.8626 20.0688 8.76075V8.76644Z" fill="#31BF84"/>
<path d="M41.1641 2.24444C45.0549 1.93685 46.008 7.37658 46.2715 10.4297C46.5126 13.2549 46.9106 19.4009 45.5931 21.6338C42.5432 26.8115 36.6509 23.5989 36.5163 17.7662C36.4715 15.9377 36.6117 12.5429 36.7462 10.6917C36.9649 7.71834 37.5311 2.52924 41.1697 2.23874L41.1641 2.24444Z" fill="#31BF84"/>
</g>
<defs>
<clipPath id="clip0_165_1328">
<rect width="188" height="91" fill="white"/>
</clipPath>
</defs>
</svg>
