<svg width="1041" height="1044" viewBox="0 0 1041 1044" fill="none" xmlns="http://www.w3.org/2000/svg">
<path fill-rule="evenodd" clip-rule="evenodd" d="M507.128 0.0100318C552.418 -0.918143 563.691 62.7839 566.854 98.8571C569.808 132.927 574.684 207.042 558.543 233.969C544.469 257.487 525.453 266.651 507.128 265.177C488.803 266.651 469.788 257.487 455.713 233.969C439.572 207.042 444.449 132.927 447.402 98.8571C450.565 62.7839 461.839 -0.918143 507.128 0.0100318ZM349.38 132.995C328.225 102.703 285.296 51.7362 245.87 78.7997V78.731C209.055 104.077 234.262 161.707 249.923 194.129C259.607 214.255 278.633 250.591 290.104 269.412C326.782 329.515 408.587 327.042 409.755 254.232C410.235 222.772 368.955 161.021 349.38 132.995ZM61.3158 276.075C81.9215 232.939 144.632 255.606 178.082 271.267C209.059 285.761 275.684 318.594 290.932 346.07C326.374 409.676 256.727 452.744 194.91 419.086C175.54 408.508 140.923 386.596 122.446 374.026C92.7052 353.763 42.0151 316.465 61.3158 276.144V276.075ZM98.8523 476.648C62.0367 479.876 -3.55822 491.553 0.150811 539.223L0.082125 539.155C3.5851 583.734 66.1579 590.672 102.012 593.35C124.335 594.999 165.271 596.716 187.32 596.167C257.654 594.518 296.393 522.326 233.957 484.959C207.032 468.817 132.92 473.694 98.8523 476.648ZM78.7892 797.698C51.727 758.27 102.692 715.339 132.982 694.183C161.006 674.607 222.755 633.324 254.213 633.805C327.02 634.973 329.492 716.782 269.392 753.462C250.572 764.933 214.238 783.96 194.113 793.645C161.693 809.306 104.066 834.515 78.7205 797.698H78.7892ZM271.221 865.496C255.56 898.947 232.894 961.661 276.029 982.267H276.097C316.416 1001.57 353.712 950.876 373.975 921.134C386.544 902.657 408.455 868.037 419.032 848.667C452.688 786.847 409.622 717.196 346.019 752.64C318.545 767.889 285.713 834.517 271.221 865.496ZM521.652 1043.28C524.423 1043.59 527.335 1043.64 530.395 1043.4L530.327 1043.47C574.904 1039.96 581.841 977.387 584.52 941.531C586.168 919.207 587.885 878.269 587.336 856.219C586.242 809.543 554.084 776.781 521.652 778.268C489.221 776.781 457.063 809.543 455.969 856.219C455.419 878.269 457.136 919.207 458.785 941.531C461.464 977.387 468.401 1039.96 512.978 1043.47L512.909 1043.4C515.969 1043.64 518.881 1043.59 521.652 1043.28ZM764.883 982.267C808.018 961.661 785.351 898.947 769.691 865.496C755.198 834.517 722.367 767.889 694.892 752.64C631.289 717.196 588.223 786.847 621.879 848.667C632.457 868.037 654.368 902.657 666.937 921.134C687.199 950.876 724.496 1001.57 764.814 982.267H764.883ZM907.937 694.183C938.228 715.339 989.192 758.27 962.13 797.698H962.199C936.854 834.515 879.227 809.306 846.807 793.645C826.682 783.96 790.347 764.933 771.527 753.462C711.427 716.782 713.9 634.973 786.707 633.805C818.165 633.324 879.913 674.607 907.937 694.183ZM1040.76 539.223C1044.47 491.553 978.875 479.876 942.059 476.648C907.991 473.694 833.879 468.817 806.954 484.959C744.519 522.326 783.258 594.518 853.592 596.167C875.64 596.716 916.577 594.999 938.9 593.35C974.754 590.672 1037.33 583.734 1040.83 539.155L1040.76 539.223ZM862.83 271.267C896.28 255.606 958.99 232.939 979.596 276.075V276.144C998.897 316.465 948.206 353.763 918.465 374.026C899.989 386.596 865.371 408.508 846.002 419.086C784.185 452.744 714.537 409.676 749.979 346.07C765.227 318.594 831.853 285.761 862.83 271.267ZM786.813 78.7997C747.388 51.7362 704.459 102.703 683.304 132.995C663.729 161.021 622.448 222.772 622.929 254.232C624.097 327.042 705.902 329.515 742.58 269.412C754.05 250.591 773.076 214.255 782.761 194.129C798.421 161.707 823.629 104.077 786.813 78.731V78.7997Z" fill="#32BF84"/>
</svg>
