<svg width="666" height="669" viewBox="0 0 666 669" fill="none" xmlns="http://www.w3.org/2000/svg">
<mask id="path-1-inside-1_53_2496" fill="white">
<path d="M333.935 498.689C354.676 497.739 375.242 518.691 375.941 548.542C376.293 562.643 375.194 588.824 374.139 603.1C372.426 626.031 367.99 666.05 339.482 668.291L339.526 668.247C337.569 668.399 335.707 668.367 333.935 668.171C332.164 668.367 330.302 668.399 328.345 668.247L328.388 668.291C299.881 666.05 295.444 626.031 293.731 603.1C292.677 588.824 291.579 562.643 291.93 548.542C292.63 518.691 313.195 497.739 333.935 498.689ZM221.615 482.3C262.291 459.633 289.833 504.176 268.309 543.712C261.545 556.1 247.532 578.24 239.494 590.057C226.536 609.078 202.683 641.496 176.898 629.152H176.854C149.269 615.974 163.765 575.868 173.78 554.474C183.048 534.663 204.044 492.052 221.615 482.3ZM398.031 543.712C376.507 504.176 404.05 459.633 444.725 482.3C462.296 492.052 483.293 534.663 492.561 554.474C502.576 575.868 517.072 615.974 489.486 629.152H489.442C463.657 641.496 439.806 609.078 426.847 590.057C418.809 578.24 404.796 556.1 398.031 543.712ZM162.896 406.302C209.458 407.049 211.039 459.367 172.603 482.825C160.568 490.161 137.331 502.329 124.461 508.523C103.727 518.539 66.8726 534.661 50.6638 511.115H50.7077C33.4012 485.9 65.9945 458.445 85.366 444.915C103.288 432.395 142.778 405.994 162.896 406.302ZM503.453 406.303C523.571 405.995 563.06 432.395 580.982 444.915C600.354 458.445 632.947 485.9 615.64 511.115H615.684C599.476 534.661 562.622 518.539 541.888 508.523C529.018 502.329 505.781 490.162 493.745 482.826C455.309 459.368 456.891 407.049 503.453 406.303ZM516.387 311.11C533.607 300.787 581.003 303.906 602.791 305.795C626.335 307.859 668.285 315.328 665.913 345.814L665.957 345.77C663.716 374.28 623.7 378.716 600.77 380.43C586.494 381.484 560.314 382.582 546.214 382.23C501.233 381.176 476.458 335.007 516.387 311.11ZM63.5388 305.795C85.3263 303.906 132.723 300.787 149.942 311.11C189.871 335.007 165.096 381.176 120.116 382.23C106.016 382.582 79.8354 381.484 65.5593 380.43C42.6297 378.716 2.61303 374.279 0.372787 345.769L0.416733 345.813C-1.95494 315.327 39.9944 307.859 63.5388 305.795ZM39.5368 177.523C52.7147 149.936 92.8194 164.432 114.212 174.448C134.022 183.717 176.632 204.715 186.384 222.286C209.049 262.964 164.508 290.507 124.974 268.982C112.587 262.217 90.4478 248.204 78.6316 240.165C59.6115 227.206 27.194 203.353 39.5368 177.567V177.523ZM552.117 174.448C573.509 164.432 613.614 149.936 626.792 177.523V177.567C639.135 203.353 606.718 227.206 587.698 240.165C575.882 248.204 553.742 262.217 541.355 268.982C501.822 290.507 457.28 262.964 479.946 222.286C489.698 204.715 532.306 183.717 552.117 174.448ZM157.558 51.3612C182.772 34.0536 210.225 66.6479 223.755 86.0204C236.274 103.943 262.673 143.435 262.366 163.555C261.619 210.118 209.303 211.7 185.846 173.263C178.511 161.226 166.343 137.988 160.149 125.117C150.134 104.383 134.014 67.5269 157.558 51.3173V51.3612ZM437.325 86.0184C450.854 66.6461 478.308 34.0512 503.521 51.3583V51.3143C527.066 67.5238 510.946 104.38 500.93 125.114C494.737 137.985 482.569 161.224 475.233 173.261C451.776 211.698 399.46 210.116 398.714 163.552C398.406 143.432 424.806 103.941 437.325 86.0184ZM286.459 64.1874C288.481 41.1205 295.689 0.390093 324.644 0.973509C353.6 0.388983 360.808 41.1202 362.831 64.1874C364.72 85.9758 367.839 133.374 357.516 150.595C348.518 165.632 336.361 171.49 324.644 170.552C312.928 171.49 300.772 165.631 291.774 150.595C281.451 133.375 284.57 85.9759 286.459 64.1874Z"/>
</mask>
<path d="M333.935 498.689C354.676 497.739 375.242 518.691 375.941 548.542C376.293 562.643 375.194 588.824 374.139 603.1C372.426 626.031 367.99 666.05 339.482 668.291L339.526 668.247C337.569 668.399 335.707 668.367 333.935 668.171C332.164 668.367 330.302 668.399 328.345 668.247L328.388 668.291C299.881 666.05 295.444 626.031 293.731 603.1C292.677 588.824 291.579 562.643 291.93 548.542C292.63 518.691 313.195 497.739 333.935 498.689ZM221.615 482.3C262.291 459.633 289.833 504.176 268.309 543.712C261.545 556.1 247.532 578.24 239.494 590.057C226.536 609.078 202.683 641.496 176.898 629.152H176.854C149.269 615.974 163.765 575.868 173.78 554.474C183.048 534.663 204.044 492.052 221.615 482.3ZM398.031 543.712C376.507 504.176 404.05 459.633 444.725 482.3C462.296 492.052 483.293 534.663 492.561 554.474C502.576 575.868 517.072 615.974 489.486 629.152H489.442C463.657 641.496 439.806 609.078 426.847 590.057C418.809 578.24 404.796 556.1 398.031 543.712ZM162.896 406.302C209.458 407.049 211.039 459.367 172.603 482.825C160.568 490.161 137.331 502.329 124.461 508.523C103.727 518.539 66.8726 534.661 50.6638 511.115H50.7077C33.4012 485.9 65.9945 458.445 85.366 444.915C103.288 432.395 142.778 405.994 162.896 406.302ZM503.453 406.303C523.571 405.995 563.06 432.395 580.982 444.915C600.354 458.445 632.947 485.9 615.64 511.115H615.684C599.476 534.661 562.622 518.539 541.888 508.523C529.018 502.329 505.781 490.162 493.745 482.826C455.309 459.368 456.891 407.049 503.453 406.303ZM516.387 311.11C533.607 300.787 581.003 303.906 602.791 305.795C626.335 307.859 668.285 315.328 665.913 345.814L665.957 345.77C663.716 374.28 623.7 378.716 600.77 380.43C586.494 381.484 560.314 382.582 546.214 382.23C501.233 381.176 476.458 335.007 516.387 311.11ZM63.5388 305.795C85.3263 303.906 132.723 300.787 149.942 311.11C189.871 335.007 165.096 381.176 120.116 382.23C106.016 382.582 79.8354 381.484 65.5593 380.43C42.6297 378.716 2.61303 374.279 0.372787 345.769L0.416733 345.813C-1.95494 315.327 39.9944 307.859 63.5388 305.795ZM39.5368 177.523C52.7147 149.936 92.8194 164.432 114.212 174.448C134.022 183.717 176.632 204.715 186.384 222.286C209.049 262.964 164.508 290.507 124.974 268.982C112.587 262.217 90.4478 248.204 78.6316 240.165C59.6115 227.206 27.194 203.353 39.5368 177.567V177.523ZM552.117 174.448C573.509 164.432 613.614 149.936 626.792 177.523V177.567C639.135 203.353 606.718 227.206 587.698 240.165C575.882 248.204 553.742 262.217 541.355 268.982C501.822 290.507 457.28 262.964 479.946 222.286C489.698 204.715 532.306 183.717 552.117 174.448ZM157.558 51.3612C182.772 34.0536 210.225 66.6479 223.755 86.0204C236.274 103.943 262.673 143.435 262.366 163.555C261.619 210.118 209.303 211.7 185.846 173.263C178.511 161.226 166.343 137.988 160.149 125.117C150.134 104.383 134.014 67.5269 157.558 51.3173V51.3612ZM437.325 86.0184C450.854 66.6461 478.308 34.0512 503.521 51.3583V51.3143C527.066 67.5238 510.946 104.38 500.93 125.114C494.737 137.985 482.569 161.224 475.233 173.261C451.776 211.698 399.46 210.116 398.714 163.552C398.406 143.432 424.806 103.941 437.325 86.0184ZM286.459 64.1874C288.481 41.1205 295.689 0.390093 324.644 0.973509C353.6 0.388983 360.808 41.1202 362.831 64.1874C364.72 85.9758 367.839 133.374 357.516 150.595C348.518 165.632 336.361 171.49 324.644 170.552C312.928 171.49 300.772 165.631 291.774 150.595C281.451 133.375 284.57 85.9759 286.459 64.1874Z" fill="#EBCEE0"/>
<path d="M333.935 498.689L333.89 499.688L333.935 499.69L333.981 499.688L333.935 498.689ZM375.941 548.542L374.941 548.565L374.941 548.567L375.941 548.542ZM374.139 603.1L375.137 603.175L375.137 603.174L374.139 603.1ZM339.482 668.291L338.775 667.584L336.859 669.5L339.561 669.288L339.482 668.291ZM339.526 668.247L340.233 668.954L342.147 667.04L339.449 667.25L339.526 668.247ZM333.935 668.171L334.045 667.177L333.935 667.165L333.825 667.177L333.935 668.171ZM328.345 668.247L328.423 667.25L325.77 667.044L327.63 668.946L328.345 668.247ZM328.388 668.291L328.31 669.288L330.966 669.497L329.103 667.592L328.388 668.291ZM293.731 603.1L292.734 603.174L292.734 603.175L293.731 603.1ZM291.93 548.542L292.93 548.567L292.93 548.565L291.93 548.542ZM221.615 482.3L222.1 483.174L222.102 483.173L221.615 482.3ZM268.309 543.712L269.187 544.191L269.188 544.19L268.309 543.712ZM239.494 590.057L240.32 590.62L240.321 590.619L239.494 590.057ZM176.898 629.152L177.33 628.25L177.125 628.152H176.898V629.152ZM176.854 629.152L176.423 630.055L176.628 630.152H176.854V629.152ZM173.78 554.474L174.686 554.898L174.686 554.898L173.78 554.474ZM398.031 543.712L397.153 544.19L397.153 544.191L398.031 543.712ZM444.725 482.3L444.239 483.173L444.24 483.174L444.725 482.3ZM492.561 554.474L491.655 554.898L491.656 554.898L492.561 554.474ZM489.486 629.152V630.152H489.713L489.917 630.055L489.486 629.152ZM489.442 629.152V628.152H489.215L489.01 628.25L489.442 629.152ZM426.847 590.057L426.021 590.619L426.021 590.62L426.847 590.057ZM162.896 406.302L162.912 405.302L162.912 405.302L162.896 406.302ZM172.603 482.825L173.124 483.679L173.124 483.679L172.603 482.825ZM124.461 508.523L124.027 507.622L124.026 507.623L124.461 508.523ZM50.6638 511.115V510.115H48.7614L49.8401 511.682L50.6638 511.115ZM50.7077 511.115V512.115H52.607L51.5322 510.549L50.7077 511.115ZM85.366 444.915L85.9386 445.735L85.9386 445.735L85.366 444.915ZM503.453 406.303L503.438 405.303L503.437 405.303L503.453 406.303ZM580.982 444.915L580.409 445.735L580.41 445.735L580.982 444.915ZM615.64 511.115L614.816 510.549L613.741 512.115H615.64V511.115ZM615.684 511.115L616.508 511.682L617.587 510.115H615.684V511.115ZM541.888 508.523L542.323 507.623L542.322 507.622L541.888 508.523ZM493.745 482.826L493.224 483.68L493.224 483.68L493.745 482.826ZM516.387 311.11L516.901 311.968L516.902 311.968L516.387 311.11ZM602.791 305.795L602.878 304.799L602.877 304.799L602.791 305.795ZM665.913 345.814L664.916 345.737L664.706 348.436L666.62 346.521L665.913 345.814ZM665.957 345.77L666.954 345.849L667.166 343.147L665.25 345.063L665.957 345.77ZM600.77 380.43L600.844 381.427L600.845 381.427L600.77 380.43ZM546.214 382.23L546.239 381.231L546.237 381.231L546.214 382.23ZM63.5388 305.795L63.4524 304.799L63.4514 304.799L63.5388 305.795ZM149.942 311.11L149.428 311.968L149.429 311.968L149.942 311.11ZM120.116 382.23L120.093 381.231L120.091 381.231L120.116 382.23ZM65.5593 380.43L65.4848 381.427L65.4857 381.427L65.5593 380.43ZM0.372787 345.769L1.07989 345.062L-0.836442 343.146L-0.62414 345.848L0.372787 345.769ZM0.416733 345.813L-0.290374 346.52L1.62367 348.435L1.41372 345.736L0.416733 345.813ZM39.5368 177.523L38.6345 177.092L38.5368 177.297V177.523H39.5368ZM114.212 174.448L113.788 175.354L113.788 175.354L114.212 174.448ZM186.384 222.286L185.509 222.771L185.51 222.773L186.384 222.286ZM124.974 268.982L124.495 269.86L124.496 269.861L124.974 268.982ZM78.6316 240.165L78.0685 240.991L78.0691 240.992L78.6316 240.165ZM39.5368 177.567L40.4388 177.999L40.5368 177.794V177.567H39.5368ZM552.117 174.448L552.541 175.354L552.541 175.354L552.117 174.448ZM626.792 177.523H627.792V177.297L627.694 177.092L626.792 177.523ZM626.792 177.567H625.792V177.794L625.89 177.999L626.792 177.567ZM587.698 240.165L588.26 240.992L588.261 240.991L587.698 240.165ZM541.355 268.982L541.833 269.861L541.835 269.86L541.355 268.982ZM479.946 222.286L480.82 222.773L480.82 222.771L479.946 222.286ZM157.558 51.3612H156.558V53.2606L158.124 52.1857L157.558 51.3612ZM223.755 86.0204L222.935 86.593L222.935 86.593L223.755 86.0204ZM262.366 163.555L263.366 163.571L263.366 163.57L262.366 163.555ZM185.846 173.263L184.993 173.783L184.993 173.783L185.846 173.263ZM160.149 125.117L161.05 124.683L161.05 124.682L160.149 125.117ZM157.558 51.3173H158.558V49.4147L156.991 50.4936L157.558 51.3173ZM437.325 86.0184L438.145 86.5911L438.145 86.591L437.325 86.0184ZM503.521 51.3583L502.955 52.1827L504.521 53.2576V51.3583H503.521ZM503.521 51.3143L504.088 50.4907L502.521 49.4118V51.3143H503.521ZM500.93 125.114L500.03 124.679L500.029 124.681L500.93 125.114ZM475.233 173.261L476.087 173.782L476.087 173.781L475.233 173.261ZM398.714 163.552L397.714 163.567L397.714 163.568L398.714 163.552ZM286.459 64.1874L285.463 64.1L285.462 64.101L286.459 64.1874ZM324.644 0.973509L324.624 1.97331L324.644 1.97371L324.664 1.9733L324.644 0.973509ZM362.831 64.1874L363.827 64.101L363.827 64.1L362.831 64.1874ZM357.516 150.595L356.659 150.08L356.658 150.081L357.516 150.595ZM324.644 170.552L324.724 169.555L324.644 169.548L324.564 169.555L324.644 170.552ZM291.774 150.595L292.632 150.081L292.632 150.08L291.774 150.595ZM333.935 498.689L333.981 499.688C353.986 498.772 374.25 519.084 374.941 548.565L375.941 548.542L376.941 548.518C376.233 518.299 355.365 496.706 333.89 497.69L333.935 498.689ZM375.941 548.542L374.941 548.567C375.292 562.621 374.195 588.766 373.142 603.027L374.139 603.1L375.137 603.174C376.192 588.882 377.293 562.664 376.941 548.517L375.941 548.542ZM374.139 603.1L373.142 603.026C372.285 614.494 370.753 630.102 365.921 643.106C361.088 656.114 353.079 666.219 339.404 667.294L339.482 668.291L339.561 669.288C354.393 668.122 362.856 657.097 367.796 643.803C372.738 630.504 374.28 614.638 375.137 603.175L374.139 603.1ZM339.482 668.291L340.189 668.998L340.233 668.954L339.526 668.247L338.819 667.54L338.775 667.584L339.482 668.291ZM339.526 668.247L339.449 667.25C337.552 667.398 335.752 667.366 334.045 667.177L333.935 668.171L333.825 669.165C335.662 669.368 337.587 669.401 339.604 669.244L339.526 668.247ZM333.935 668.171L333.825 667.177C332.118 667.366 330.32 667.398 328.423 667.25L328.345 668.247L328.268 669.244C330.285 669.401 332.209 669.368 334.045 669.165L333.935 668.171ZM328.345 668.247L327.63 668.946L327.673 668.99L328.388 668.291L329.103 667.592L329.06 667.548L328.345 668.247ZM328.388 668.291L328.467 667.294C314.792 666.219 306.783 656.114 301.949 643.106C297.117 630.102 295.585 614.494 294.728 603.026L293.731 603.1L292.734 603.175C293.59 614.638 295.133 630.504 300.074 643.803C305.014 657.097 313.477 668.122 328.31 669.288L328.388 668.291ZM293.731 603.1L294.728 603.027C293.675 588.766 292.58 562.621 292.93 548.567L291.93 548.542L290.931 548.517C290.578 562.664 291.679 588.882 292.734 603.174L293.731 603.1ZM291.93 548.542L292.93 548.565C293.621 519.084 313.884 498.772 333.89 499.688L333.935 498.689L333.981 497.69C312.506 496.706 291.639 518.299 290.931 548.518L291.93 548.542ZM221.615 482.3L222.102 483.173C232.105 477.599 241.212 476.203 248.9 477.753C256.588 479.303 262.959 483.818 267.468 490.254C276.498 503.142 278.039 523.748 267.431 543.234L268.309 543.712L269.188 544.19C280.103 524.14 278.635 502.706 269.106 489.106C264.335 482.297 257.54 477.455 249.296 475.793C241.052 474.131 231.463 475.667 221.128 481.426L221.615 482.3ZM268.309 543.712L267.432 543.233C260.688 555.581 246.696 577.692 238.667 589.494L239.494 590.057L240.321 590.619C248.369 578.788 262.401 556.618 269.187 544.191L268.309 543.712ZM239.494 590.057L238.667 589.493C232.187 599.006 223.054 611.757 212.369 620.596C201.68 629.438 189.698 634.171 177.33 628.25L176.898 629.152L176.466 630.054C189.883 636.477 202.72 631.173 213.643 622.137C224.57 613.097 233.842 600.128 240.32 590.62L239.494 590.057ZM176.898 629.152V628.152H176.854V629.152V630.152H176.898V629.152ZM176.854 629.152L177.285 628.25C170.622 625.066 166.53 620.282 164.257 614.563C161.973 608.816 161.507 602.074 162.212 594.993C163.622 580.819 169.69 565.57 174.686 554.898L173.78 554.474L172.874 554.05C167.855 564.772 161.667 580.272 160.222 594.795C159.499 602.062 159.955 609.154 162.399 615.302C164.853 621.478 169.294 626.649 176.423 630.055L176.854 629.152ZM173.78 554.474L174.686 554.898C179.316 545.001 186.865 529.433 195.442 515.129C199.731 507.977 204.265 501.16 208.81 495.534C213.367 489.891 217.877 485.518 222.1 483.174L221.615 482.3L221.13 481.425C216.568 483.957 211.865 488.568 207.254 494.277C202.63 500.002 198.042 506.905 193.727 514.101C185.096 528.494 177.512 544.136 172.874 554.051L173.78 554.474ZM398.031 543.712L398.909 543.234C388.301 523.748 389.842 503.142 398.872 490.254C403.381 483.818 409.753 479.303 417.44 477.753C425.129 476.203 434.235 477.599 444.239 483.173L444.725 482.3L445.212 481.426C434.878 475.667 425.288 474.131 417.045 475.793C408.801 477.455 402.005 482.297 397.234 489.106C387.705 502.706 386.237 524.14 397.153 544.19L398.031 543.712ZM444.725 482.3L444.24 483.174C448.464 485.518 452.974 489.891 457.531 495.534C462.075 501.16 466.61 507.977 470.899 515.129C479.476 529.432 487.025 545.001 491.655 554.898L492.561 554.474L493.467 554.051C488.829 544.136 481.245 528.494 472.614 514.1C468.299 506.904 463.711 500.002 459.087 494.277C454.476 488.568 449.772 483.957 445.211 481.425L444.725 482.3ZM492.561 554.474L491.656 554.898C496.652 565.57 502.719 580.819 504.129 594.993C504.833 602.074 504.368 608.816 502.083 614.563C499.81 620.282 495.719 625.066 489.055 628.25L489.486 629.152L489.917 630.055C497.046 626.649 501.487 621.478 503.942 615.302C506.385 609.154 506.842 602.062 506.119 594.795C504.674 580.272 498.486 564.772 493.467 554.05L492.561 554.474ZM489.486 629.152V628.152H489.442V629.152V630.152H489.486V629.152ZM489.442 629.152L489.01 628.25C476.642 634.171 464.66 629.438 453.972 620.596C443.288 611.757 434.154 599.006 427.674 589.493L426.847 590.057L426.021 590.62C432.499 600.128 441.771 613.097 452.697 622.137C463.621 631.173 476.457 636.477 489.874 630.054L489.442 629.152ZM426.847 590.057L427.674 589.494C419.645 577.692 405.652 555.581 398.909 543.233L398.031 543.712L397.153 544.191C403.939 556.618 417.972 578.788 426.021 590.619L426.847 590.057ZM162.896 406.302L162.88 407.302C174.331 407.485 182.916 410.835 188.8 416.025C194.682 421.214 197.942 428.309 198.627 436.134C200.001 451.806 191.026 470.41 172.082 481.971L172.603 482.825L173.124 483.679C192.616 471.782 202.069 452.498 200.62 435.96C199.894 427.68 196.431 420.089 190.123 414.525C183.815 408.961 174.742 405.492 162.912 405.302L162.896 406.302ZM172.603 482.825L172.083 481.971C160.086 489.284 136.881 501.436 124.027 507.622L124.461 508.523L124.894 509.424C137.781 503.223 161.049 491.038 173.124 483.679L172.603 482.825ZM124.461 508.523L124.026 507.623C113.658 512.631 99.3753 519.106 85.6988 521.419C72.0182 523.732 59.2632 521.843 51.4875 510.548L50.6638 511.115L49.8401 511.682C58.2732 523.932 72.0501 525.755 86.0323 523.391C100.019 521.025 114.53 514.431 124.896 509.424L124.461 508.523ZM50.6638 511.115V512.115H50.7077V511.115V510.115H50.6638V511.115ZM50.7077 511.115L51.5322 510.549C47.3514 504.458 46.1983 498.269 47.0873 492.181C47.9808 486.063 50.9462 479.994 55.0949 474.216C63.399 462.652 76.2749 452.484 85.9386 445.735L85.366 444.915L84.7933 444.095C75.0856 450.875 61.9791 461.2 53.4703 473.05C49.2126 478.979 46.064 485.348 45.1083 491.892C44.1482 498.466 45.4108 505.165 49.8833 511.681L50.7077 511.115ZM85.366 444.915L85.9386 445.735C94.8918 439.48 109.211 429.774 123.793 421.672C131.085 417.621 138.423 413.982 145.175 411.378C151.946 408.766 158.044 407.228 162.881 407.302L162.896 406.302L162.912 405.302C157.69 405.222 151.306 406.869 144.455 409.512C137.585 412.162 130.158 415.848 122.822 419.924C108.149 428.076 93.7621 437.83 84.7933 444.095L85.366 444.915ZM503.453 406.303L503.468 407.302C508.305 407.229 514.403 408.767 521.174 411.379C527.926 413.983 535.264 417.622 542.555 421.673C557.137 429.774 571.456 439.48 580.409 445.735L580.982 444.915L581.555 444.095C572.586 437.83 558.2 428.076 543.527 419.925C536.191 415.849 528.764 412.163 521.894 409.513C515.043 406.87 508.66 405.223 503.438 405.303L503.453 406.303ZM580.982 444.915L580.41 445.735C590.073 452.484 602.949 462.652 611.253 474.216C615.402 479.994 618.367 486.063 619.261 492.181C620.15 498.269 618.997 504.458 614.816 510.549L615.64 511.115L616.465 511.681C620.937 505.165 622.2 498.466 621.24 491.892C620.284 485.348 617.136 478.979 612.878 473.05C604.369 461.2 591.263 450.875 581.555 444.095L580.982 444.915ZM615.64 511.115V512.115H615.684V511.115V510.115H615.64V511.115ZM615.684 511.115L614.861 510.548C607.085 521.843 594.33 523.732 580.65 521.419C566.974 519.106 552.691 512.631 542.323 507.623L541.888 508.523L541.453 509.424C551.819 514.431 566.33 521.025 580.316 523.391C594.298 525.755 608.075 523.932 616.508 511.682L615.684 511.115ZM541.888 508.523L542.322 507.622C529.468 501.436 506.263 489.285 494.265 481.972L493.745 482.826L493.224 483.68C505.299 491.04 528.568 503.223 541.455 509.424L541.888 508.523ZM493.745 482.826L494.266 481.972C475.323 470.411 466.348 451.807 467.721 436.135C468.407 428.31 471.666 421.214 477.549 416.026C483.433 410.836 492.018 407.486 503.469 407.302L503.453 406.303L503.437 405.303C491.607 405.492 482.534 408.962 476.226 414.526C469.918 420.09 466.454 427.68 465.729 435.96C464.279 452.499 473.732 471.783 493.224 483.68L493.745 482.826ZM516.387 311.11L516.902 311.968C521.041 309.486 527.08 307.77 534.243 306.647C541.386 305.527 549.556 305.01 557.892 304.873C574.565 304.599 591.82 305.847 602.704 306.791L602.791 305.795L602.877 304.799C591.974 303.853 574.637 302.598 557.86 302.873C549.471 303.011 541.201 303.531 533.934 304.671C526.686 305.807 520.344 307.572 515.873 310.253L516.387 311.11ZM602.791 305.795L602.703 306.791C614.45 307.821 630.684 310.194 643.659 316.058C650.141 318.987 655.744 322.76 659.577 327.61C663.392 332.437 665.489 338.372 664.916 345.737L665.913 345.814L666.91 345.892C667.523 338.013 665.266 331.583 661.146 326.37C657.046 321.182 651.134 317.242 644.482 314.235C631.189 308.227 614.676 305.833 602.878 304.799L602.791 305.795ZM665.913 345.814L666.62 346.521L666.664 346.477L665.957 345.77L665.25 345.063L665.206 345.107L665.913 345.814ZM665.957 345.77L664.96 345.692C663.885 359.368 653.781 367.377 640.774 372.211C627.77 377.043 612.163 378.576 600.696 379.432L600.77 380.43L600.845 381.427C612.307 380.57 628.173 379.027 641.47 374.086C654.764 369.146 665.788 360.682 666.954 345.849L665.957 345.77ZM600.77 380.43L600.697 379.432C586.436 380.485 560.292 381.581 546.239 381.231L546.214 382.23L546.189 383.23C560.335 383.583 586.552 382.482 600.844 381.427L600.77 380.43ZM546.214 382.23L546.237 381.231C524.07 380.711 507.008 369.081 500.366 354.814C497.05 347.69 496.326 339.911 498.825 332.475C501.325 325.037 507.082 317.845 516.901 311.968L516.387 311.11L515.874 310.252C505.729 316.324 499.609 323.864 496.929 331.838C494.25 339.812 495.044 348.121 498.553 355.658C505.561 370.714 523.377 382.695 546.19 383.23L546.214 382.23ZM63.5388 305.795L63.6252 306.791C74.5092 305.847 91.7645 304.599 108.437 304.873C116.774 305.01 124.944 305.527 132.086 306.647C139.249 307.77 145.289 309.486 149.428 311.968L149.942 311.11L150.456 310.253C145.986 307.572 139.644 305.807 132.396 304.671C125.128 303.531 116.858 303.011 108.47 302.873C91.6928 302.598 74.3559 303.853 63.4524 304.799L63.5388 305.795ZM149.942 311.11L149.429 311.968C159.248 317.845 165.005 325.037 167.504 332.475C170.003 339.911 169.28 347.69 165.963 354.814C159.322 369.081 142.26 380.711 120.093 381.231L120.116 382.23L120.139 383.23C142.952 382.695 160.768 370.714 167.777 355.658C171.285 348.121 172.08 339.812 169.4 331.838C166.72 323.864 160.601 316.324 150.456 310.252L149.942 311.11ZM120.116 382.23L120.091 381.231C106.037 381.581 79.8933 380.485 65.633 379.432L65.5593 380.43L65.4857 381.427C79.7774 382.482 105.994 383.583 120.141 383.23L120.116 382.23ZM65.5593 380.43L65.6338 379.432C54.1665 378.576 38.5592 377.043 25.5559 372.211C12.5486 367.377 2.44436 359.367 1.36971 345.691L0.372787 345.769L-0.62414 345.848C0.541463 360.681 11.5657 369.145 24.8592 374.085C38.1567 379.027 54.0225 380.57 65.4848 381.427L65.5593 380.43ZM0.372787 345.769L-0.334319 346.477L-0.290374 346.52L0.416733 345.813L1.12384 345.106L1.07989 345.062L0.372787 345.769ZM0.416733 345.813L1.41372 345.736C0.840787 338.371 2.93791 332.436 6.75262 327.61C10.5862 322.759 16.1892 318.987 22.6711 316.057C35.6454 310.194 51.8798 307.821 63.6262 306.791L63.5388 305.795L63.4514 304.799C51.6534 305.833 35.1409 308.227 21.8474 314.235C15.1953 317.241 9.28416 321.181 5.18352 326.369C1.06401 331.582 -1.19316 338.013 -0.580255 345.891L0.416733 345.813ZM39.5368 177.523L40.4392 177.954C43.6225 171.29 48.4064 167.199 54.1253 164.925C59.8724 162.641 66.6141 162.175 73.6948 162.88C87.8678 164.29 103.116 170.358 113.788 175.354L114.212 174.448L114.636 173.542C103.915 168.523 88.4148 162.335 73.8929 160.89C66.6262 160.167 59.5338 160.623 53.3865 163.067C47.211 165.522 42.0402 169.963 38.6345 177.092L39.5368 177.523ZM114.212 174.448L113.788 175.354C123.685 179.984 139.253 187.534 153.555 196.111C160.707 200.4 167.524 204.935 173.15 209.48C178.792 214.037 183.165 218.547 185.509 222.771L186.384 222.286L187.258 221.801C184.726 217.239 180.116 212.535 174.407 207.924C168.682 203.3 161.78 198.711 154.584 194.396C140.192 185.765 124.549 178.181 114.635 173.542L114.212 174.448ZM186.384 222.286L185.51 222.773C191.084 232.777 192.48 241.884 190.93 249.572C189.38 257.26 184.865 263.632 178.43 268.141C165.542 277.172 144.937 278.713 125.453 268.104L124.974 268.982L124.496 269.861C144.546 280.777 165.978 279.308 179.578 269.779C186.386 265.008 191.228 258.212 192.89 249.968C194.552 241.724 193.016 232.134 187.257 221.799L186.384 222.286ZM124.974 268.982L125.454 268.105C113.106 261.361 90.9959 247.367 79.1941 239.338L78.6316 240.165L78.0691 240.992C89.8996 249.04 112.068 263.073 124.495 269.86L124.974 268.982ZM78.6316 240.165L79.1946 239.338C69.6827 232.858 56.9326 223.724 48.0937 213.039C39.2521 202.35 34.5183 190.368 40.4388 177.999L39.5368 177.567L38.6349 177.136C32.2126 190.553 37.5161 203.389 46.5526 214.314C55.5917 225.241 68.5604 234.513 78.0685 240.991L78.6316 240.165ZM39.5368 177.567H40.5368V177.523H39.5368H38.5368V177.567H39.5368ZM552.117 174.448L552.541 175.354C563.212 170.358 578.461 164.29 592.634 162.88C599.714 162.175 606.456 162.641 612.203 164.925C617.922 167.198 622.706 171.29 625.889 177.954L626.792 177.523L627.694 177.092C624.288 169.963 619.118 165.521 612.942 163.067C606.795 160.623 599.702 160.167 592.436 160.89C577.914 162.335 562.414 168.523 551.693 173.542L552.117 174.448ZM626.792 177.523H625.792V177.567H626.792H627.792V177.523H626.792ZM626.792 177.567L625.89 177.999C631.81 190.368 627.077 202.35 618.236 213.039C609.397 223.724 596.647 232.858 587.135 239.338L587.698 240.165L588.261 240.991C597.769 234.513 610.738 225.241 619.777 214.314C628.813 203.389 634.116 190.553 627.694 177.135L626.792 177.567ZM587.698 240.165L587.135 239.338C575.334 247.367 553.224 261.361 540.876 268.105L541.355 268.982L541.835 269.86C554.261 263.073 576.43 249.04 588.26 240.992L587.698 240.165ZM541.355 268.982L540.877 268.104C521.393 278.713 500.788 277.172 487.9 268.141C481.464 263.632 476.95 257.26 475.4 249.573C473.85 241.884 475.245 232.777 480.82 222.773L479.946 222.286L479.072 221.799C473.314 232.134 471.777 241.724 473.439 249.968C475.101 258.212 479.943 265.008 486.752 269.779C500.352 279.308 521.784 280.777 541.833 269.861L541.355 268.982ZM479.946 222.286L480.82 222.771C483.165 218.547 487.537 214.037 493.179 209.48C498.805 204.935 505.622 200.4 512.774 196.111C527.076 187.534 542.644 179.984 552.541 175.354L552.117 174.448L551.693 173.542C541.779 178.181 526.137 185.765 511.745 194.396C504.549 198.712 497.647 203.3 491.922 207.924C486.214 212.535 481.603 217.239 479.072 221.801L479.946 222.286ZM157.558 51.3612L158.124 52.1857C164.215 48.0046 170.404 46.8513 176.491 47.7403C182.609 48.6337 188.678 51.5992 194.455 55.748C206.019 64.0524 216.185 76.9287 222.935 86.593L223.755 86.0204L224.574 85.4478C217.794 75.7396 207.47 62.6325 195.621 54.1235C189.692 49.8656 183.324 46.7169 176.78 45.7613C170.206 44.8012 163.508 46.064 156.992 50.5368L157.558 51.3612ZM223.755 86.0204L222.935 86.593C229.189 95.5466 238.895 109.867 246.996 124.449C251.047 131.741 254.686 139.08 257.29 145.832C259.902 152.604 261.44 158.702 261.366 163.539L262.366 163.555L263.366 163.57C263.446 158.348 261.799 151.964 259.156 145.113C256.506 138.242 252.82 130.815 248.744 123.478C240.593 108.804 230.839 94.417 224.574 85.4477L223.755 86.0204ZM262.366 163.555L261.366 163.539C261.182 174.99 257.832 183.576 252.643 189.459C247.455 195.342 240.36 198.602 232.535 199.288C216.864 200.661 198.261 191.686 186.7 172.742L185.846 173.263L184.993 173.783C196.889 193.277 216.172 202.729 232.71 201.28C240.989 200.555 248.579 197.091 254.143 190.782C259.706 184.474 263.176 175.401 263.366 163.571L262.366 163.555ZM185.846 173.263L186.7 172.742C179.388 160.744 167.236 137.538 161.05 124.683L160.149 125.117L159.248 125.551C165.449 138.438 177.633 161.708 184.993 173.783L185.846 173.263ZM160.149 125.117L161.05 124.682C156.041 114.314 149.568 100.031 147.255 86.3537C144.941 72.6725 146.831 59.917 158.125 52.1409L157.558 51.3173L156.991 50.4936C144.742 58.9271 142.918 72.7044 145.283 86.6871C147.648 100.674 154.242 115.186 159.249 125.552L160.149 125.117ZM157.558 51.3173H156.558V51.3612H157.558H158.558V51.3173H157.558ZM437.325 86.0184L438.145 86.591C444.894 76.9268 455.061 64.0504 466.625 55.7458C472.402 51.5969 478.47 48.6313 484.588 47.7378C490.676 46.8486 496.864 48.0018 502.955 52.1827L503.521 51.3583L504.087 50.5338C497.571 46.0612 490.873 44.7986 484.299 45.7588C477.755 46.7146 471.387 49.8634 465.458 54.1213C453.609 62.6305 443.285 75.7377 436.505 85.4459L437.325 86.0184ZM503.521 51.3583H504.521V51.3143H503.521H502.521V51.3583H503.521ZM503.521 51.3143L502.954 52.138C514.249 59.914 516.138 72.6695 513.825 86.3507C511.512 100.028 505.038 114.311 500.03 124.679L500.93 125.114L501.831 125.549C506.838 115.183 513.432 100.671 515.797 86.6841C518.161 72.7014 516.338 58.9241 504.088 50.4907L503.521 51.3143ZM500.93 125.114L500.029 124.681C493.843 137.535 481.691 160.742 474.379 172.74L475.233 173.261L476.087 173.781C483.446 161.706 495.63 138.435 501.832 125.548L500.93 125.114ZM475.233 173.261L474.38 172.74C462.819 191.684 444.216 200.659 428.544 199.285C420.72 198.6 413.625 195.34 408.436 189.457C403.247 183.573 399.897 174.987 399.713 163.536L398.714 163.552L397.714 163.568C397.903 175.398 401.373 184.472 406.936 190.78C412.5 197.088 420.09 200.552 428.37 201.278C444.908 202.727 464.191 193.275 476.087 173.782L475.233 173.261ZM398.714 163.552L399.713 163.536C399.64 158.699 401.178 152.601 403.79 145.829C406.394 139.077 410.033 131.739 414.084 124.447C422.185 109.865 431.891 95.5446 438.145 86.5911L437.325 86.0184L436.505 85.4458C430.24 94.415 420.487 108.802 412.335 123.476C408.26 130.812 404.574 138.239 401.924 145.11C399.281 151.961 397.634 158.345 397.714 163.567L398.714 163.552ZM286.459 64.1874L287.455 64.2747C288.464 52.7682 290.761 36.9515 296.368 24.1118C301.979 11.2645 310.751 1.69377 324.624 1.97331L324.644 0.973509L324.664 -0.0262886C309.583 -0.330169 300.273 10.1726 294.535 23.3114C288.794 36.4577 286.476 52.5396 285.463 64.1L286.459 64.1874ZM324.644 0.973509L324.664 1.9733C338.538 1.69324 347.311 11.2639 352.921 24.1113C358.528 36.951 360.826 52.7681 361.835 64.2747L362.831 64.1874L363.827 64.1C362.813 52.5395 360.495 36.4573 354.754 23.3108C349.016 10.1719 339.706 -0.330747 324.624 -0.0262878L324.644 0.973509ZM362.831 64.1874L361.835 64.2737C362.778 75.1583 364.027 92.4142 363.753 109.088C363.616 117.425 363.099 125.595 361.979 132.738C360.856 139.901 359.14 145.941 356.659 150.08L357.516 150.595L358.374 151.109C361.054 146.638 362.819 140.295 363.955 133.048C365.095 125.779 365.615 117.509 365.753 109.12C366.028 92.3425 364.772 75.0049 363.827 64.101L362.831 64.1874ZM357.516 150.595L356.658 150.081C347.818 164.854 335.994 170.458 324.724 169.555L324.644 170.552L324.564 171.548C336.728 172.523 349.218 166.409 358.374 151.108L357.516 150.595ZM324.644 170.552L324.564 169.555C313.295 170.457 301.473 164.854 292.632 150.081L291.774 150.595L290.916 151.108C300.072 166.408 312.561 172.522 324.724 171.548L324.644 170.552ZM291.774 150.595L292.632 150.08C290.15 145.941 288.434 139.901 287.311 132.738C286.191 125.595 285.674 117.425 285.537 109.088C285.263 92.4143 286.511 75.1583 287.455 64.2737L286.459 64.1874L285.462 64.101C284.517 75.005 283.262 92.3426 283.537 109.121C283.675 117.509 284.196 125.78 285.335 133.048C286.472 140.295 288.237 146.638 290.916 151.109L291.774 150.595Z" fill="black" mask="url(#path-1-inside-1_53_2496)"/>
</svg>
