<svg width="1473" height="702" viewBox="0 0 1473 702" fill="none" xmlns="http://www.w3.org/2000/svg">
<g clip-path="url(#clip0_53_2527)">
<path d="M599.509 317.693H469.31C467.509 317.693 465.664 315.891 465.664 314.046L467.465 156.561L465.664 3.60315C465.664 1.80157 467.465 -0.0439453 469.31 -0.0439453H598.148C662.588 -0.0439453 708.843 24.4751 708.843 77.5557C708.843 116.575 688.417 138.37 650.772 148.344C696.588 157.88 717.453 186.046 717.936 222.341C717.936 290.405 661.666 317.649 599.509 317.649V317.693ZM520.573 130.724H598.148C632.191 130.724 653.056 116.663 653.056 86.256C653.056 55.8489 629.907 41.3045 598.148 41.3045H521.934L520.573 130.724ZM521.934 276.432H598.148C634.914 276.432 661.666 263.25 661.666 222.429C661.666 185.211 632.191 171.589 598.148 171.589H520.573L521.934 276.432Z" fill="#EBCEE0"/>
<path d="M951.628 237.808C953.429 237.808 955.274 239.61 954.791 241.455C948.422 286.407 909.854 323.141 847.258 323.141C771.924 323.141 731.555 272.785 731.555 201.513C731.555 130.241 774.647 78.5224 845.457 78.5224C916.267 78.5224 958.876 127.56 960.238 207.401C960.238 209.203 958.437 211.048 956.592 211.048H785.98C788.264 260.965 808.646 284.561 848.137 284.561C876.733 284.561 895.314 270.5 901.684 241.455C902.123 239.17 904.407 237.808 906.208 237.808H951.584H951.628ZM845.896 116.663C813.215 116.663 793.711 136.612 787.825 174.314H901.244C898.96 143.906 881.741 116.663 845.896 116.663Z" fill="#EBCEE0"/>
<path d="M1145.83 317.693C1144.03 317.693 1142.18 315.891 1142.18 314.046L1143.1 285.44C1127.2 308.597 1102.74 322.175 1071.42 322.175C1006.54 322.175 972.492 269.534 972.492 201.469C972.492 133.405 1009.7 79.3573 1072.29 79.3573C1103.13 79.3573 1127.2 91.1774 1143.06 113.851L1141.7 87.5303C1141.7 85.7287 1143.5 83.8832 1145.34 83.8832H1193.44C1195.25 83.8832 1197.09 85.6848 1197.09 87.5303L1195.73 200.107L1197.09 314.046C1197.09 315.847 1195.29 317.693 1193.44 317.693H1145.78H1145.83ZM1085.91 283.683C1122.68 283.683 1143.98 256.439 1144.47 202.436C1144.91 148.432 1124.04 118.465 1087.27 118.025C1047.34 117.586 1027.84 147.993 1027.84 197.91C1027.84 252.353 1047.78 283.683 1085.91 283.683Z" fill="#EBCEE0"/>
<path d="M1225.25 317.693C1223.45 317.693 1221.6 315.891 1221.6 314.046L1222.96 199.667L1221.6 87.5742C1221.6 85.7726 1223.4 83.9271 1225.25 83.9271H1272.42C1274.23 83.9271 1276.07 85.7287 1276.07 87.5742L1274.71 124.792C1291.97 96.67 1322.81 82.1255 1355.93 82.1255C1360.45 82.1255 1364.54 82.565 1368.19 83.0483C1369.99 83.4877 1371.83 85.7726 1371.83 87.5742V122.991C1371.83 124.792 1370.03 126.154 1368.19 126.154C1365.02 125.715 1360.94 125.715 1357.29 125.715C1313.28 125.715 1277.87 151.113 1276.07 204.237L1276.51 314.09C1276.51 315.891 1274.71 317.737 1272.86 317.737H1225.2L1225.25 317.693Z" fill="#EBCEE0"/>
<path d="M588.179 701.121C557.342 701.121 533.27 689.301 517.413 666.628L518.775 692.948C518.775 694.75 516.974 696.595 515.129 696.595H467.029C465.228 696.595 463.383 694.794 463.383 692.948L464.745 530.894L463.383 382.462C463.383 380.66 465.184 378.815 467.029 378.815H515.129C516.93 378.815 518.775 380.616 518.775 382.462L518.335 493.193C534.676 470.959 558.265 458.26 589.102 458.26C653.982 458.26 688.025 510.901 688.025 579.01C688.025 647.118 650.819 701.121 588.223 701.121H588.179ZM573.2 661.618C613.13 662.541 632.194 631.211 632.194 581.734C632.194 528.609 612.69 497.323 574.562 497.763C537.795 497.763 516.49 524.523 516.007 577.208C515.568 631.211 536.433 661.179 573.2 661.618Z" fill="#EBCEE0"/>
<path d="M920.746 616.667C922.547 616.667 924.392 618.468 923.908 620.314C917.539 665.265 878.971 702 816.375 702C741.041 702 700.672 651.644 700.672 580.372C700.672 509.099 743.764 457.381 814.574 457.381C885.384 457.381 927.994 506.419 929.355 586.26C929.355 588.061 927.554 589.907 925.709 589.907H755.097C757.381 639.824 777.764 663.42 817.254 663.42C845.85 663.42 864.431 649.359 870.801 620.314C871.24 618.029 873.524 616.667 875.325 616.667H920.702H920.746ZM815.058 495.522C782.376 495.522 762.872 515.471 756.986 553.172H870.405C868.121 522.765 850.902 495.522 815.058 495.522Z" fill="#EBCEE0"/>
<path d="M1071.86 689.301C1071.86 691.586 1070.49 693.388 1068.21 693.827C1056.88 697.474 1043.26 700.638 1030.56 700.638C993.798 700.638 960.677 682.007 960.677 629.849L961.116 503.651H934.365C932.564 503.651 930.719 501.849 930.719 500.004V466.433C930.719 464.631 932.52 462.786 934.365 462.786H961.116L960.677 407.86C960.677 406.058 962.478 404.213 964.323 404.213H1011.94C1013.74 404.213 1015.59 406.014 1015.59 407.86L1015.15 462.786H1068.21C1070.01 462.786 1071.86 464.587 1071.86 466.433V500.004C1071.86 501.805 1070.05 503.651 1068.21 503.651H1015.15V628.487C1015.15 652.083 1025.12 659.333 1042.38 659.333C1052.84 659.333 1061.45 657.532 1068.25 655.686C1070.05 655.247 1071.9 656.609 1071.9 658.411V689.257L1071.86 689.301Z" fill="#EBCEE0"/>
<path d="M1246.99 696.551C1245.19 696.551 1243.35 694.75 1243.35 692.904L1244.27 664.299C1228.37 687.456 1203.9 701.077 1172.58 701.077C1107.7 701.077 1073.66 648.436 1073.66 580.328C1073.66 512.219 1110.86 458.216 1173.46 458.216C1204.29 458.216 1228.37 470.036 1244.22 492.71L1242.86 466.389C1242.86 464.587 1244.66 462.742 1246.51 462.742H1294.61C1296.41 462.742 1298.25 464.543 1298.25 466.389L1296.89 578.966L1298.25 692.904C1298.25 694.706 1296.45 696.551 1294.61 696.551H1246.95H1246.99ZM1187.12 662.541C1223.89 662.541 1245.19 635.298 1245.67 581.294C1246.11 527.291 1225.25 497.323 1188.48 496.884C1148.55 496.445 1129.05 526.852 1129.05 576.768C1129.05 631.211 1148.99 662.541 1187.12 662.541Z" fill="#EBCEE0"/>
<path d="M1326.41 696.551C1324.61 696.551 1322.77 694.75 1322.77 692.904L1324.13 578.526L1322.77 466.433C1322.77 464.631 1324.57 462.786 1326.41 462.786H1373.59C1375.39 462.786 1377.23 464.587 1377.23 466.433L1375.87 503.651C1393.14 475.529 1423.97 460.984 1457.09 460.984C1461.62 460.984 1465.7 461.424 1469.35 461.907C1471.15 462.346 1473 464.631 1473 466.433V501.849C1473 503.651 1471.19 505.057 1469.35 505.057C1466.19 504.617 1462.1 504.617 1458.46 504.617C1414.44 504.617 1379.04 530.015 1377.23 583.14L1377.67 692.992C1377.67 694.794 1375.87 696.639 1374.03 696.639H1326.37L1326.41 696.551Z" fill="#EBCEE0"/>
<path d="M344.829 684.687C314.344 687.06 306.876 645.097 304.812 621.544C302.923 599.75 299.804 552.337 310.127 535.112C334.023 495.17 380.19 519.953 381.245 564.948C381.596 579.053 380.498 605.242 379.444 619.523C377.73 642.46 373.294 682.49 344.785 684.731L344.829 684.687Z" fill="#EBCEE0"/>
<path d="M176.547 645.58C148.961 632.398 163.457 592.28 173.472 570.88C182.74 551.063 203.738 508.44 221.308 498.685C261.985 476.012 289.527 520.568 268.003 560.115C261.238 572.506 247.225 594.652 239.187 606.473C226.228 625.499 202.376 657.927 176.591 645.58H176.547Z" fill="#EBCEE0"/>
<path d="M50.3859 527.511C33.0787 502.289 65.6724 474.826 85.0442 461.292C102.966 448.769 142.457 422.36 162.575 422.668C209.138 423.415 210.719 475.748 172.283 499.213C160.247 506.551 137.01 518.723 124.139 524.918C103.406 534.937 66.551 551.063 50.342 527.511H50.3859Z" fill="#EBCEE0"/>
<path d="M0.0886361 362.161C-2.28342 331.666 39.6668 324.196 63.2116 322.131C84.9993 320.241 132.396 317.122 149.616 327.448C189.545 351.352 164.771 397.533 119.789 398.588C105.689 398.94 79.5084 397.841 65.2322 396.786C42.3024 395.073 2.28498 390.635 0.0447092 362.117L0.0886361 362.161Z" fill="#EBCEE0"/>
<path d="M39.2305 193.823C52.4085 166.228 92.5138 180.729 113.906 190.748C133.717 200.019 176.326 221.023 186.078 238.599C208.744 279.288 164.202 306.839 124.668 285.308C112.281 278.541 90.1417 264.524 78.3254 256.483C59.3051 243.521 26.887 219.661 39.2305 193.867V193.823Z" fill="#EBCEE0"/>
<path d="M157.216 67.6251C182.43 50.3123 209.885 82.9165 223.414 102.294C235.933 120.222 262.333 159.725 262.026 179.85C261.279 226.428 208.962 228.009 185.505 189.561C178.169 177.521 166.002 154.277 159.808 141.402C149.793 120.662 133.671 83.7953 157.216 67.5811V67.6251Z" fill="#EBCEE0"/>
<path d="M322.513 17.3127C352.999 14.9399 360.466 56.9035 362.531 80.4558C364.42 102.251 367.539 149.663 357.216 166.888C333.32 206.83 287.152 182.047 286.098 137.052C285.747 122.947 286.845 96.7579 287.899 82.4771C289.612 59.54 294.049 19.5098 322.557 17.2688L322.513 17.3127Z" fill="#EBCEE0"/>
</g>
<defs>
<clipPath id="clip0_53_2527">
<rect width="1473" height="702" fill="white"/>
</clipPath>
</defs>
</svg>
