<svg width="666" height="669" viewBox="0 0 666 669" fill="none" xmlns="http://www.w3.org/2000/svg">
<path fill-rule="evenodd" clip-rule="evenodd" d="M324.645 0.971909C353.601 0.387959 360.809 41.1203 362.831 64.1874C364.72 85.9759 367.839 133.375 357.516 150.595C348.518 165.631 336.361 171.492 324.645 170.554C312.929 171.492 300.772 165.631 291.774 150.595C281.451 133.375 284.57 85.9759 286.459 64.1874C288.481 41.1203 295.689 0.387959 324.645 0.971909ZM223.755 86.0203C210.226 66.6479 182.772 34.0529 157.558 51.3608V51.3168C134.014 67.5265 150.135 104.382 160.15 125.117C166.343 137.988 178.511 161.226 185.847 173.262C209.303 211.7 261.62 210.118 262.366 163.554C262.674 143.435 236.274 103.943 223.755 86.0203ZM39.5375 177.523C52.7154 149.936 92.8202 164.432 114.212 174.448C134.023 183.717 176.632 204.715 186.383 222.286C209.049 262.964 164.508 290.507 124.974 268.982C112.587 262.217 90.4481 248.204 78.632 240.165C59.6118 227.206 27.1942 203.353 39.5375 177.567V177.523ZM63.5389 305.795C39.9944 307.86 -1.95526 315.327 0.41676 345.814L0.372834 345.77C2.61308 374.279 42.63 378.716 65.5596 380.429C79.8356 381.484 106.016 382.582 120.116 382.23C165.097 381.176 189.871 335.007 149.942 311.11C132.723 300.787 85.3264 303.906 63.5389 305.795ZM50.7083 511.115C33.4013 485.9 65.9946 458.445 85.3662 444.915C103.288 432.396 142.778 405.995 162.896 406.302C209.458 407.049 211.039 459.368 172.604 482.825C160.568 490.161 137.331 502.33 124.461 508.524C103.727 518.539 66.8732 534.661 50.6643 511.115H50.7083ZM173.78 554.474C163.765 575.867 149.269 615.974 176.855 629.153H176.899C202.683 641.497 226.535 609.077 239.494 590.056C247.532 578.24 261.545 556.1 268.309 543.712C289.833 504.176 262.292 459.633 221.616 482.3C204.045 492.052 183.048 534.663 173.78 554.474ZM333.936 668.172C335.707 668.369 337.569 668.399 339.526 668.247L339.482 668.291C367.99 666.05 372.427 626.032 374.14 603.101C375.194 588.824 376.292 562.643 375.941 548.542C375.241 518.691 354.676 497.739 333.936 498.689C313.195 497.739 292.63 518.691 291.93 548.542C291.579 562.643 292.677 588.824 293.731 603.101C295.444 626.032 299.881 666.05 328.389 668.291L328.345 668.247C330.302 668.399 332.164 668.369 333.936 668.172ZM489.486 629.153C517.072 615.974 502.576 575.867 492.561 554.474C483.293 534.663 462.296 492.052 444.725 482.3C404.05 459.633 376.508 504.176 398.032 543.712C404.796 556.1 418.809 578.24 426.847 590.056C439.806 609.077 463.658 641.497 489.442 629.153H489.486ZM580.983 444.915C600.354 458.445 632.948 485.901 615.641 511.116H615.685C599.476 534.661 562.622 518.539 541.888 508.524C529.018 502.33 505.781 490.162 493.745 482.826C455.309 459.368 456.891 407.049 503.453 406.302C523.571 405.995 563.061 432.396 580.983 444.915ZM665.913 345.814C668.285 315.328 626.336 307.86 602.791 305.795C581.004 303.906 533.607 300.787 516.388 311.11C476.459 335.008 501.233 381.176 546.214 382.231C560.314 382.582 586.494 381.484 600.77 380.43C623.7 378.716 663.717 374.28 665.957 345.77L665.913 345.814ZM552.118 174.448C573.51 164.432 613.615 149.936 626.792 177.523V177.567C639.136 203.353 606.718 227.206 587.698 240.165C575.882 248.204 553.743 262.217 541.356 268.982C501.822 290.507 457.281 262.964 479.947 222.286C489.698 204.715 532.307 183.717 552.118 174.448ZM503.522 51.3587C478.308 34.0508 450.854 66.6458 437.325 86.0182C424.806 103.941 398.406 143.433 398.714 163.552C399.46 210.116 451.777 211.698 475.233 173.26C482.569 161.224 494.737 137.986 500.93 125.115C510.946 104.38 527.066 67.5243 503.522 51.3147V51.3587Z" fill="#4BFF4C"/>
</svg>
