<svg width="452" height="216" viewBox="0 0 452 216" fill="none" xmlns="http://www.w3.org/2000/svg">
<g clip-path="url(#clip0_835_1345)">
<path d="M183.97 97.7516H144.017C143.465 97.7516 142.898 97.1973 142.898 96.6294L143.451 48.1727L142.898 1.10863C142.898 0.554302 143.451 -0.0135498 144.017 -0.0135498H183.552C203.326 -0.0135498 217.52 7.53077 217.52 23.8633C217.52 35.8693 211.252 42.5753 199.7 45.6444C213.759 48.5783 220.162 57.2448 220.31 68.4126C220.31 89.3555 203.043 97.7381 183.97 97.7381V97.7516ZM159.748 40.2228H183.552C193.998 40.2228 200.401 35.8963 200.401 26.5403C200.401 17.1842 193.297 12.709 183.552 12.709H160.165L159.748 40.2228ZM160.165 85.0561H183.552C194.834 85.0561 203.043 81 203.043 68.4396C203.043 56.988 193.998 52.7967 183.552 52.7967H159.748L160.165 85.0561Z" fill="#456961"/>
<path d="M292.023 73.1718C292.576 73.1718 293.142 73.7261 292.994 74.294C291.039 88.1252 279.205 99.4282 259.997 99.4282C236.88 99.4282 224.492 83.9339 224.492 62.004C224.492 40.0741 237.715 24.1608 259.444 24.1608C281.172 24.1608 294.247 39.2494 294.665 63.8157C294.665 64.3701 294.113 64.9379 293.546 64.9379H241.193C241.894 80.297 248.148 87.5574 260.266 87.5574C269.041 87.5574 274.743 83.2309 276.697 74.294C276.832 73.5909 277.533 73.1718 278.086 73.1718H292.01H292.023ZM259.579 35.8964C249.55 35.8964 243.565 42.0346 241.759 53.635H276.563C275.862 44.2789 270.578 35.8964 259.579 35.8964Z" fill="#456961"/>
<path d="M351.611 97.7516C351.058 97.7516 350.492 97.1973 350.492 96.6294L350.775 87.8277C345.896 94.9529 338.388 99.1307 328.777 99.1307C308.868 99.1307 298.422 82.9334 298.422 61.9905C298.422 41.0475 309.839 24.4176 329.047 24.4176C338.509 24.4176 345.896 28.0546 350.762 35.031L350.344 26.9324C350.344 26.378 350.897 25.8102 351.463 25.8102H366.223C366.775 25.8102 367.341 26.3645 367.341 26.9324L366.923 61.5713L367.341 96.6294C367.341 97.1838 366.789 97.7516 366.223 97.7516H351.598H351.611ZM333.225 87.2869C344.507 87.2869 351.045 78.9043 351.193 62.2879C351.328 45.6715 344.925 36.4507 333.643 36.3155C321.391 36.1802 315.406 45.5363 315.406 60.8953C315.406 77.6469 321.525 87.2869 333.225 87.2869Z" fill="#456961"/>
<path d="M375.978 97.7516C375.425 97.7516 374.859 97.1973 374.859 96.6295L375.277 61.4362L374.859 26.9459C374.859 26.3916 375.412 25.8237 375.978 25.8237H390.455C391.008 25.8237 391.574 26.3781 391.574 26.9459L391.156 38.3976C396.453 29.7446 405.916 25.2694 416.079 25.2694C417.467 25.2694 418.721 25.4046 419.84 25.5533C420.392 25.6885 420.958 26.3916 420.958 26.9459V37.8433C420.958 38.3976 420.406 38.8167 419.84 38.8167C418.869 38.6815 417.616 38.6815 416.497 38.6815C402.991 38.6815 392.126 46.4962 391.574 62.8423L391.708 96.643C391.708 97.1973 391.156 97.7652 390.59 97.7652H375.965L375.978 97.7516Z" fill="#456961"/>
<path d="M180.49 215.73C171.027 215.73 163.641 212.093 158.775 205.116L159.193 213.215C159.193 213.769 158.64 214.337 158.074 214.337H143.314C142.761 214.337 142.195 213.783 142.195 213.215L142.613 163.352L142.195 117.681C142.195 117.126 142.748 116.558 143.314 116.558H158.074C158.627 116.558 159.193 117.113 159.193 117.681L159.058 151.752C164.072 144.91 171.311 141.003 180.773 141.003C200.682 141.003 211.128 157.2 211.128 178.157C211.128 199.113 199.711 215.73 180.503 215.73H180.49ZM175.893 203.575C188.146 203.859 193.996 194.219 193.996 178.995C193.996 162.649 188.011 153.023 176.311 153.158C165.029 153.158 158.492 161.392 158.343 177.602C158.209 194.219 164.611 203.44 175.893 203.575Z" fill="#456961"/>
<path d="M282.539 189.744C283.092 189.744 283.658 190.298 283.509 190.866C281.555 204.697 269.72 216 250.512 216C227.395 216 215.008 200.506 215.008 178.576C215.008 156.646 228.231 140.733 249.96 140.733C271.688 140.733 284.763 155.821 285.181 180.388C285.181 180.942 284.628 181.51 284.062 181.51H231.709C232.41 196.869 238.664 204.129 250.782 204.129C259.557 204.129 265.259 199.803 267.213 190.866C267.348 190.163 268.049 189.744 268.601 189.744H282.525H282.539ZM250.108 152.468C240.079 152.468 234.094 158.606 232.288 170.207H267.092C266.391 160.851 261.107 152.468 250.108 152.468Z" fill="#456961"/>
<path d="M328.91 212.093C328.91 212.796 328.493 213.35 327.792 213.485C324.314 214.607 320.135 215.581 316.24 215.581C304.958 215.581 294.794 209.848 294.794 193.8L294.929 154.969H286.72C286.168 154.969 285.602 154.415 285.602 153.847V143.518C285.602 142.963 286.154 142.396 286.72 142.396H294.929L294.794 125.495C294.794 124.941 295.347 124.373 295.913 124.373H310.525C311.077 124.373 311.643 124.927 311.643 125.495L311.509 142.396H327.792C328.344 142.396 328.91 142.95 328.91 143.518V153.847C328.91 154.402 328.358 154.969 327.792 154.969H311.509V193.381C311.509 200.641 314.568 202.872 319.866 202.872C323.074 202.872 325.716 202.317 327.805 201.75C328.358 201.614 328.924 202.034 328.924 202.588V212.079L328.91 212.093Z" fill="#456961"/>
<path d="M382.65 214.324C382.097 214.324 381.531 213.769 381.531 213.201L381.814 204.4C376.935 211.525 369.427 215.716 359.816 215.716C339.907 215.716 329.461 199.519 329.461 178.562C329.461 157.606 340.878 140.99 360.086 140.99C369.548 140.99 376.935 144.626 381.801 151.603L381.383 143.504C381.383 142.95 381.936 142.382 382.502 142.382H397.262C397.814 142.382 398.38 142.936 398.38 143.504L397.963 178.143L398.38 213.201C398.38 213.756 397.828 214.324 397.262 214.324H382.637H382.65ZM364.278 203.859C375.56 203.859 382.097 195.476 382.246 178.86C382.381 162.243 375.978 153.023 364.696 152.887C352.443 152.752 346.458 162.108 346.458 177.467C346.458 194.219 352.578 203.859 364.278 203.859Z" fill="#456961"/>
<path d="M407.025 214.324C406.472 214.324 405.906 213.769 405.906 213.201L406.324 178.008L405.906 143.518C405.906 142.963 406.459 142.396 407.025 142.396H421.502C422.054 142.396 422.621 142.95 422.621 143.518L422.203 154.969C427.5 146.317 436.962 141.841 447.126 141.841C448.514 141.841 449.768 141.977 450.887 142.125C451.439 142.26 452.005 142.963 452.005 143.518V154.415C452.005 154.969 451.453 155.402 450.887 155.402C449.916 155.267 448.662 155.267 447.544 155.267C434.037 155.267 423.173 163.082 422.621 179.428L422.755 213.228C422.755 213.783 422.203 214.351 421.637 214.351H407.012L407.025 214.324Z" fill="#456961"/>
<path d="M105.819 210.673C96.464 211.403 94.1726 198.491 93.539 191.244C92.9594 184.538 92.0024 169.95 95.17 164.65C102.503 152.36 116.669 159.986 116.993 173.83C117.101 178.17 116.764 186.228 116.44 190.623C115.915 197.68 114.553 209.997 105.805 210.687L105.819 210.673Z" fill="#456961"/>
<path d="M54.1741 198.64C45.7092 194.584 50.1573 182.24 53.2306 175.656C56.0747 169.558 62.5178 156.443 67.9095 153.442C80.3913 146.465 88.8428 160.175 82.238 172.343C80.1622 176.156 75.8623 182.97 73.3956 186.607C69.4192 192.461 62.1 202.439 54.1876 198.64H54.1741Z" fill="#456961"/>
<path d="M15.465 162.311C10.1542 154.55 20.1558 146.1 26.1001 141.936C31.5997 138.083 43.7175 129.957 49.891 130.052C64.179 130.281 64.6643 146.384 52.8699 153.604C49.1766 155.862 42.0461 159.607 38.0967 161.513C31.7345 164.596 20.4254 169.558 15.4515 162.311H15.465Z" fill="#456961"/>
<path d="M0.0295959 111.434C-0.698284 102.051 12.1744 99.7527 19.3993 99.1173C26.085 98.5359 40.6291 97.576 45.913 100.753C58.1656 108.108 50.5633 122.318 36.7606 122.643C32.4337 122.751 24.4001 122.413 20.0193 122.088C12.9832 121.561 0.703559 120.195 0.0161166 111.421L0.0295959 111.434Z" fill="#456961"/>
<path d="M12.041 59.638C16.0848 51.1473 28.3913 55.609 34.9557 58.6916C41.0349 61.5444 54.1098 68.0071 57.1022 73.4152C64.0575 85.935 50.3895 94.4122 38.2582 87.7872C34.457 85.7051 27.6635 81.3921 24.0375 78.9179C18.201 74.9295 8.25332 67.5879 12.041 59.6515V59.638Z" fill="#456961"/>
<path d="M48.2421 20.8077C55.9792 15.4807 64.4037 25.5128 68.5553 31.4752C72.3969 36.9915 80.4979 49.1462 80.4036 55.3385C80.1744 69.67 64.1206 70.1567 56.9227 58.3265C54.6717 54.6219 50.9379 47.4697 49.0373 43.5083C45.9641 37.1267 41.0172 25.7832 48.2421 20.7942V20.8077Z" fill="#456961"/>
<path d="M98.9683 5.32705C108.323 4.59695 110.614 17.5088 111.248 24.7557C111.827 31.4618 112.784 46.0501 109.617 51.3501C102.284 63.64 88.1174 56.0146 87.7939 42.1698C87.6861 37.8298 88.0231 29.7717 88.3466 25.3776C88.8723 18.32 90.2337 6.00306 98.9817 5.31353L98.9683 5.32705Z" fill="#456961"/>
</g>
<defs>
<clipPath id="clip0_835_1345">
<rect width="452" height="216" fill="white"/>
</clipPath>
</defs>
</svg>
