<svg width="666" height="669" viewBox="0 0 666 669" fill="none" xmlns="http://www.w3.org/2000/svg">
<mask id="path-1-inside-1_53_2496" fill="white">
<path d="M333.936 498.691C354.676 497.741 375.242 518.693 375.941 548.543C376.293 562.644 375.194 588.825 374.14 603.102C372.427 626.033 367.99 666.052 339.482 668.292L339.526 668.249C337.57 668.401 335.707 668.369 333.936 668.172C332.164 668.369 330.302 668.401 328.346 668.249L328.389 668.292C299.881 666.052 295.445 626.033 293.731 603.102C292.677 588.825 291.579 562.644 291.931 548.543C292.63 518.693 313.195 497.741 333.936 498.691ZM221.615 482.301C262.291 459.634 289.833 504.178 268.31 543.713C261.545 556.101 247.533 578.241 239.494 590.058C226.536 609.079 202.683 641.498 176.898 629.154H176.854C149.269 615.975 163.765 575.869 173.78 554.476C183.049 534.664 204.045 492.054 221.615 482.301ZM398.031 543.713C376.508 504.178 404.05 459.634 444.726 482.301C462.296 492.053 483.293 534.664 492.562 554.476C502.577 575.869 517.072 615.975 489.486 629.154H489.442C463.658 641.498 439.806 609.079 426.848 590.058C418.809 578.241 404.796 556.101 398.031 543.713ZM162.896 406.303C209.458 407.05 211.039 459.369 172.604 482.827C160.568 490.163 137.331 502.331 124.461 508.525C103.728 518.541 66.8729 534.662 50.6641 511.117H50.708C33.4015 485.902 65.9948 458.446 85.3662 444.917C103.288 432.397 142.778 405.996 162.896 406.303ZM503.453 406.304C523.571 405.997 563.06 432.397 580.982 444.917C600.354 458.446 632.947 485.902 615.641 511.117H615.685C599.476 534.662 562.622 518.541 541.889 508.525C529.018 502.331 505.781 490.164 493.745 482.828C455.31 459.37 456.891 407.051 503.453 406.304ZM516.388 311.112C533.607 300.789 581.004 303.907 602.791 305.796C626.336 307.861 668.285 315.33 665.913 345.816L665.957 345.772C663.716 374.281 623.7 378.718 600.771 380.431C586.494 381.485 560.314 382.583 546.214 382.232C501.233 381.178 476.459 335.009 516.388 311.112ZM63.5391 305.796C85.3266 303.907 132.723 300.789 149.942 311.112C189.871 335.009 165.097 381.178 120.116 382.232C106.016 382.583 79.8356 381.485 65.5596 380.431C42.63 378.718 2.61329 374.281 0.373047 345.771L0.416992 345.815C-1.95468 315.329 39.9946 307.861 63.5391 305.796ZM39.5371 177.525C52.715 149.938 92.8197 164.434 114.212 174.45C134.023 183.719 176.632 204.716 186.384 222.288C209.05 262.965 164.508 290.509 124.975 268.984C112.587 262.219 90.448 248.205 78.6318 240.167C59.6118 227.208 27.1943 203.355 39.5371 177.569V177.525ZM552.117 174.45C573.509 164.434 613.614 149.938 626.792 177.525V177.569C639.135 203.355 606.718 227.208 587.698 240.167C575.882 248.205 553.743 262.219 541.355 268.984C501.822 290.509 457.28 262.965 479.946 222.288C489.698 204.716 532.306 183.719 552.117 174.45ZM157.559 51.3628C182.772 34.0552 210.226 66.6495 223.755 86.022C236.274 103.945 262.674 143.437 262.366 163.556C261.619 210.12 209.303 211.701 185.847 173.264C178.511 161.228 166.343 137.99 160.149 125.119C150.134 104.384 134.014 67.5285 157.559 51.3188V51.3628ZM437.325 86.02C450.854 66.6477 478.308 34.0528 503.521 51.3599V51.3159C527.066 67.5254 510.946 104.381 500.931 125.116C494.737 137.987 482.569 161.226 475.233 173.262C451.777 211.699 399.461 210.117 398.714 163.553C398.407 143.434 424.806 103.943 437.325 86.02ZM286.459 64.189C288.482 41.1221 295.689 0.391682 324.645 0.975098C353.601 0.390572 360.808 41.1218 362.831 64.189C364.72 85.9774 367.839 133.376 357.517 150.596C348.518 165.633 336.361 171.492 324.645 170.553C312.928 171.491 300.773 165.633 291.774 150.596C281.452 133.376 284.57 85.9775 286.459 64.189Z"/>
</mask>
<path d="M333.936 498.691C354.676 497.741 375.242 518.693 375.941 548.543C376.293 562.644 375.194 588.825 374.14 603.102C372.427 626.033 367.99 666.052 339.482 668.292L339.526 668.249C337.57 668.401 335.707 668.369 333.936 668.172C332.164 668.369 330.302 668.401 328.346 668.249L328.389 668.292C299.881 666.052 295.445 626.033 293.731 603.102C292.677 588.825 291.579 562.644 291.931 548.543C292.63 518.693 313.195 497.741 333.936 498.691ZM221.615 482.301C262.291 459.634 289.833 504.178 268.31 543.713C261.545 556.101 247.533 578.241 239.494 590.058C226.536 609.079 202.683 641.498 176.898 629.154H176.854C149.269 615.975 163.765 575.869 173.78 554.476C183.049 534.664 204.045 492.054 221.615 482.301ZM398.031 543.713C376.508 504.178 404.05 459.634 444.726 482.301C462.296 492.053 483.293 534.664 492.562 554.476C502.577 575.869 517.072 615.975 489.486 629.154H489.442C463.658 641.498 439.806 609.079 426.848 590.058C418.809 578.241 404.796 556.101 398.031 543.713ZM162.896 406.303C209.458 407.05 211.039 459.369 172.604 482.827C160.568 490.163 137.331 502.331 124.461 508.525C103.728 518.541 66.8729 534.662 50.6641 511.117H50.708C33.4015 485.902 65.9948 458.446 85.3662 444.917C103.288 432.397 142.778 405.996 162.896 406.303ZM503.453 406.304C523.571 405.997 563.06 432.397 580.982 444.917C600.354 458.446 632.947 485.902 615.641 511.117H615.685C599.476 534.662 562.622 518.541 541.889 508.525C529.018 502.331 505.781 490.164 493.745 482.828C455.31 459.37 456.891 407.051 503.453 406.304ZM516.388 311.112C533.607 300.789 581.004 303.907 602.791 305.796C626.336 307.861 668.285 315.33 665.913 345.816L665.957 345.772C663.716 374.281 623.7 378.718 600.771 380.431C586.494 381.485 560.314 382.583 546.214 382.232C501.233 381.178 476.459 335.009 516.388 311.112ZM63.5391 305.796C85.3266 303.907 132.723 300.789 149.942 311.112C189.871 335.009 165.097 381.178 120.116 382.232C106.016 382.583 79.8356 381.485 65.5596 380.431C42.63 378.718 2.61329 374.281 0.373047 345.771L0.416992 345.815C-1.95468 315.329 39.9946 307.861 63.5391 305.796ZM39.5371 177.525C52.715 149.938 92.8197 164.434 114.212 174.45C134.023 183.719 176.632 204.716 186.384 222.288C209.05 262.965 164.508 290.509 124.975 268.984C112.587 262.219 90.448 248.205 78.6318 240.167C59.6118 227.208 27.1943 203.355 39.5371 177.569V177.525ZM552.117 174.45C573.509 164.434 613.614 149.938 626.792 177.525V177.569C639.135 203.355 606.718 227.208 587.698 240.167C575.882 248.205 553.743 262.219 541.355 268.984C501.822 290.509 457.28 262.965 479.946 222.288C489.698 204.716 532.306 183.719 552.117 174.45ZM157.559 51.3628C182.772 34.0552 210.226 66.6495 223.755 86.022C236.274 103.945 262.674 143.437 262.366 163.556C261.619 210.12 209.303 211.701 185.847 173.264C178.511 161.228 166.343 137.99 160.149 125.119C150.134 104.384 134.014 67.5285 157.559 51.3188V51.3628ZM437.325 86.02C450.854 66.6477 478.308 34.0528 503.521 51.3599V51.3159C527.066 67.5254 510.946 104.381 500.931 125.116C494.737 137.987 482.569 161.226 475.233 173.262C451.777 211.699 399.461 210.117 398.714 163.553C398.407 143.434 424.806 103.943 437.325 86.02ZM286.459 64.189C288.482 41.1221 295.689 0.391682 324.645 0.975098C353.601 0.390572 360.808 41.1218 362.831 64.189C364.72 85.9774 367.839 133.376 357.517 150.596C348.518 165.633 336.361 171.492 324.645 170.553C312.928 171.491 300.773 165.633 291.774 150.596C281.452 133.376 284.57 85.9775 286.459 64.189Z" fill="#32BF84"/>
<path d="M333.936 498.691L333.89 499.69L333.936 499.692L333.981 499.69L333.936 498.691ZM375.941 548.543L374.942 548.567L374.942 548.568L375.941 548.543ZM374.14 603.102L375.137 603.177L375.137 603.176L374.14 603.102ZM339.482 668.292L338.775 667.585L336.859 669.502L339.561 669.289L339.482 668.292ZM339.526 668.249L340.233 668.956L342.148 667.042L339.449 667.252L339.526 668.249ZM333.936 668.172L334.046 667.178L333.936 667.166L333.825 667.178L333.936 668.172ZM328.346 668.249L328.423 667.252L325.77 667.045L327.631 668.948L328.346 668.249ZM328.389 668.292L328.31 669.289L330.966 669.498L329.104 667.593L328.389 668.292ZM293.731 603.102L292.734 603.176L292.734 603.177L293.731 603.102ZM291.931 548.543L292.93 548.568L292.93 548.567L291.931 548.543ZM221.615 482.301L222.101 483.176L222.102 483.175L221.615 482.301ZM268.31 543.713L269.187 544.193L269.188 544.192L268.31 543.713ZM239.494 590.058L240.321 590.621L240.321 590.621L239.494 590.058ZM176.898 629.154L177.33 628.252L177.125 628.154H176.898V629.154ZM176.854 629.154L176.423 630.056L176.628 630.154H176.854V629.154ZM173.78 554.476L174.686 554.9L174.686 554.9L173.78 554.476ZM398.031 543.713L397.153 544.192L397.154 544.193L398.031 543.713ZM444.726 482.301L444.239 483.175L444.24 483.176L444.726 482.301ZM492.562 554.476L491.656 554.9L491.656 554.9L492.562 554.476ZM489.486 629.154V630.154H489.713L489.917 630.056L489.486 629.154ZM489.442 629.154V628.154H489.215L489.011 628.252L489.442 629.154ZM426.848 590.058L426.021 590.621L426.021 590.621L426.848 590.058ZM162.896 406.303L162.913 405.303H162.912L162.896 406.303ZM172.604 482.827L173.124 483.681L173.124 483.68L172.604 482.827ZM124.461 508.525L124.027 507.624L124.026 507.624L124.461 508.525ZM50.6641 511.117V510.117H48.7616L49.8404 511.684L50.6641 511.117ZM50.708 511.117V512.117H52.6073L51.5325 510.551L50.708 511.117ZM85.3662 444.917L85.9388 445.736L85.9389 445.736L85.3662 444.917ZM503.453 406.304L503.438 405.304H503.437L503.453 406.304ZM580.982 444.917L580.41 445.736L580.41 445.736L580.982 444.917ZM615.641 511.117L614.816 510.551L613.741 512.117H615.641V511.117ZM615.685 511.117L616.508 511.684L617.587 510.117H615.685V511.117ZM541.889 508.525L542.324 507.624L542.322 507.624L541.889 508.525ZM493.745 482.828L493.224 483.681L493.225 483.682L493.745 482.828ZM516.388 311.112L516.901 311.97L516.902 311.969L516.388 311.112ZM602.791 305.796L602.878 304.8L602.877 304.8L602.791 305.796ZM665.913 345.816L664.916 345.738L664.706 348.437L666.62 346.523L665.913 345.816ZM665.957 345.772L666.954 345.85L667.166 343.148L665.25 345.065L665.957 345.772ZM600.771 380.431L600.844 381.428L600.845 381.428L600.771 380.431ZM546.214 382.232L546.239 381.232L546.237 381.232L546.214 382.232ZM63.5391 305.796L63.4527 304.8L63.4517 304.8L63.5391 305.796ZM149.942 311.112L149.428 311.969L149.429 311.97L149.942 311.112ZM120.116 382.232L120.093 381.232L120.091 381.232L120.116 382.232ZM65.5596 380.431L65.4851 381.428L65.4859 381.428L65.5596 380.431ZM0.373047 345.771L1.08015 345.064L-0.836182 343.148L-0.62388 345.849L0.373047 345.771ZM0.416992 345.815L-0.290115 346.522L1.62393 348.436L1.41398 345.737L0.416992 345.815ZM39.5371 177.525L38.6348 177.094L38.5371 177.298V177.525H39.5371ZM114.212 174.45L113.788 175.355L113.788 175.355L114.212 174.45ZM186.384 222.288L185.509 222.773L185.51 222.774L186.384 222.288ZM124.975 268.984L124.495 269.862L124.496 269.862L124.975 268.984ZM78.6318 240.167L78.0688 240.993L78.0693 240.993L78.6318 240.167ZM39.5371 177.569L40.4391 178.001L40.5371 177.796V177.569H39.5371ZM552.117 174.45L552.541 175.355L552.541 175.355L552.117 174.45ZM626.792 177.525H627.792V177.298L627.694 177.094L626.792 177.525ZM626.792 177.569H625.792V177.796L625.89 178.001L626.792 177.569ZM587.698 240.167L588.261 240.993L588.261 240.993L587.698 240.167ZM541.355 268.984L541.834 269.862L541.835 269.862L541.355 268.984ZM479.946 222.288L480.82 222.774L480.821 222.773L479.946 222.288ZM157.559 51.3628H156.559V53.2622L158.125 52.1872L157.559 51.3628ZM223.755 86.022L222.935 86.5945L222.935 86.5946L223.755 86.022ZM262.366 163.556L263.366 163.572V163.571L262.366 163.556ZM185.847 173.264L184.993 173.785L184.993 173.785L185.847 173.264ZM160.149 125.119L161.051 124.685L161.05 124.684L160.149 125.119ZM157.559 51.3188H158.559V49.4163L156.992 50.4952L157.559 51.3188ZM437.325 86.02L438.145 86.5927L438.145 86.5926L437.325 86.02ZM503.521 51.3599L502.956 52.1843L504.521 53.2592V51.3599H503.521ZM503.521 51.3159L504.089 50.4922L502.521 49.4134V51.3159H503.521ZM500.931 125.116L500.03 124.681L500.03 124.682L500.931 125.116ZM475.233 173.262L476.087 173.783L476.087 173.783L475.233 173.262ZM398.714 163.553L397.714 163.568V163.569L398.714 163.553ZM286.459 64.189L285.463 64.1016L285.463 64.1026L286.459 64.189ZM324.645 0.975098L324.624 1.97489L324.645 1.9753L324.665 1.97489L324.645 0.975098ZM362.831 64.189L363.827 64.1026L363.827 64.1016L362.831 64.189ZM357.517 150.596L356.659 150.082L356.659 150.083L357.517 150.596ZM324.645 170.553L324.724 169.556L324.645 169.55L324.565 169.556L324.645 170.553ZM291.774 150.596L292.633 150.083L292.632 150.082L291.774 150.596ZM333.936 498.691L333.981 499.69C353.987 498.773 374.251 519.085 374.942 548.567L375.941 548.543L376.941 548.52C376.233 518.3 355.365 496.708 333.89 497.692L333.936 498.691ZM375.941 548.543L374.942 548.568C375.292 562.623 374.195 588.767 373.142 603.028L374.14 603.102L375.137 603.176C376.192 588.883 377.294 562.666 376.941 548.519L375.941 548.543ZM374.14 603.102L373.142 603.028C372.286 614.495 370.754 630.104 365.922 643.108C361.088 656.116 353.079 666.221 339.404 667.296L339.482 668.292L339.561 669.289C354.394 668.124 362.857 657.099 367.796 643.804C372.738 630.506 374.28 614.639 375.137 603.177L374.14 603.102ZM339.482 668.292L340.19 669L340.233 668.956L339.526 668.249L338.819 667.541L338.775 667.585L339.482 668.292ZM339.526 668.249L339.449 667.252C337.552 667.399 335.753 667.368 334.046 667.178L333.936 668.172L333.825 669.166C335.662 669.37 337.587 669.402 339.604 669.246L339.526 668.249ZM333.936 668.172L333.825 667.178C332.119 667.368 330.32 667.399 328.423 667.252L328.346 668.249L328.268 669.246C330.285 669.402 332.209 669.37 334.046 669.166L333.936 668.172ZM328.346 668.249L327.631 668.948L327.674 668.992L328.389 668.292L329.104 667.593L329.061 667.549L328.346 668.249ZM328.389 668.292L328.467 667.296C314.792 666.221 306.783 656.116 301.949 643.108C297.117 630.104 295.585 614.495 294.729 603.028L293.731 603.102L292.734 603.177C293.591 614.639 295.133 630.506 300.075 643.804C305.015 657.099 313.478 668.124 328.31 669.289L328.389 668.292ZM293.731 603.102L294.729 603.028C293.676 588.767 292.58 562.623 292.93 548.568L291.931 548.543L290.931 548.519C290.578 562.666 291.679 588.883 292.734 603.176L293.731 603.102ZM291.931 548.543L292.93 548.567C293.621 519.085 313.884 498.773 333.89 499.69L333.936 498.691L333.981 497.692C312.506 496.708 291.639 518.301 290.931 548.52L291.931 548.543ZM221.615 482.301L222.102 483.175C232.105 477.6 241.212 476.205 248.9 477.755C256.588 479.305 262.959 483.82 267.468 490.255C276.499 503.144 278.039 523.75 267.431 543.235L268.31 543.713L269.188 544.192C280.104 524.141 278.635 502.708 269.106 489.107C264.336 482.298 257.54 477.457 249.296 475.794C241.053 474.132 231.463 475.669 221.128 481.428L221.615 482.301ZM268.31 543.713L267.432 543.234C260.689 555.583 246.696 577.693 238.667 589.496L239.494 590.058L240.321 590.621C248.369 578.789 262.401 556.62 269.187 544.193L268.31 543.713ZM239.494 590.058L238.668 589.495C232.187 599.008 223.054 611.758 212.369 620.597C201.681 629.439 189.698 634.173 177.33 628.252L176.898 629.154L176.467 630.056C189.883 636.479 202.72 631.175 213.644 622.138C224.571 613.099 233.843 600.13 240.321 590.621L239.494 590.058ZM176.898 629.154V628.154H176.854V629.154V630.154H176.898V629.154ZM176.854 629.154L177.286 628.251C170.622 625.068 166.53 620.284 164.258 614.565C161.973 608.817 161.508 602.075 162.212 594.994C163.623 580.821 169.69 565.572 174.686 554.9L173.78 554.476L172.875 554.052C167.855 564.773 161.667 580.274 160.222 594.796C159.499 602.063 159.956 609.156 162.399 615.303C164.853 621.479 169.294 626.65 176.423 630.056L176.854 629.154ZM173.78 554.476L174.686 554.9C179.316 545.003 186.865 529.434 195.442 515.131C199.731 507.979 204.266 501.162 208.81 495.535C213.367 489.893 217.877 485.52 222.101 483.176L221.615 482.301L221.13 481.427C216.568 483.959 211.865 488.57 207.254 494.279C202.63 500.004 198.042 506.906 193.727 514.102C185.096 528.495 177.513 544.138 172.874 554.052L173.78 554.476ZM398.031 543.713L398.91 543.235C388.301 523.75 389.842 503.144 398.873 490.255C403.382 483.82 409.753 479.305 417.44 477.755C425.129 476.205 434.235 477.6 444.239 483.175L444.726 482.301L445.212 481.428C434.878 475.669 425.288 474.132 417.045 475.794C408.801 477.457 402.005 482.299 397.235 489.108C387.706 502.708 386.237 524.141 397.153 544.192L398.031 543.713ZM444.726 482.301L444.24 483.176C448.464 485.52 452.974 489.893 457.531 495.535C462.076 501.162 466.61 507.979 470.899 515.131C479.476 529.434 487.026 545.003 491.656 554.9L492.562 554.476L493.467 554.052C488.829 544.138 481.245 528.495 472.614 514.102C468.299 506.906 463.711 500.004 459.087 494.278C454.476 488.569 449.772 483.959 445.211 481.427L444.726 482.301ZM492.562 554.476L491.656 554.9C496.652 565.572 502.719 580.821 504.129 594.994C504.834 602.075 504.368 608.817 502.084 614.565C499.81 620.284 495.719 625.068 489.055 628.251L489.486 629.154L489.917 630.056C497.047 626.65 501.488 621.479 503.942 615.303C506.385 609.156 506.842 602.063 506.119 594.796C504.674 580.274 498.486 564.773 493.467 554.052L492.562 554.476ZM489.486 629.154V628.154H489.442V629.154V630.154H489.486V629.154ZM489.442 629.154L489.011 628.252C476.642 634.173 464.661 629.439 453.973 620.597C443.288 611.758 434.155 599.008 427.674 589.495L426.848 590.058L426.021 590.621C432.499 600.13 441.771 613.099 452.698 622.138C463.621 631.175 476.458 636.479 489.874 630.056L489.442 629.154ZM426.848 590.058L427.674 589.496C419.646 577.693 405.652 555.583 398.909 543.234L398.031 543.713L397.154 544.193C403.94 556.62 417.973 578.789 426.021 590.621L426.848 590.058ZM162.896 406.303L162.88 407.303C174.332 407.487 182.917 410.837 188.8 416.026C194.682 421.215 197.942 428.31 198.628 436.136C200.001 451.808 191.026 470.412 172.083 481.973L172.604 482.827L173.124 483.68C192.617 471.784 202.069 452.5 200.62 435.961C199.895 427.681 196.431 420.091 190.123 414.526C183.815 408.963 174.742 405.493 162.913 405.303L162.896 406.303ZM172.604 482.827L172.083 481.973C160.086 489.285 136.882 501.438 124.027 507.624L124.461 508.525L124.895 509.426C137.781 503.224 161.05 491.04 173.124 483.681L172.604 482.827ZM124.461 508.525L124.026 507.624C113.658 512.633 99.3755 519.107 85.6991 521.42C72.0184 523.734 59.2635 521.845 51.4878 510.55L50.6641 511.117L49.8404 511.684C58.2735 523.934 72.0503 525.757 86.0326 523.392C100.019 521.027 114.531 514.433 124.896 509.425L124.461 508.525ZM50.6641 511.117V512.117H50.708V511.117V510.117H50.6641V511.117ZM50.708 511.117L51.5325 510.551C47.3517 504.46 46.1985 498.27 47.0876 492.183C47.981 486.064 50.9465 479.996 55.0952 474.218C63.3993 462.654 76.2751 452.486 85.9388 445.736L85.3662 444.917L84.7936 444.097C75.0859 450.877 61.9793 461.202 53.4706 473.051C49.2129 478.981 46.0643 485.349 45.1086 491.894C44.1485 498.468 45.4111 505.166 49.8835 511.683L50.708 511.117ZM85.3662 444.917L85.9389 445.736C94.8921 439.482 109.212 429.775 123.793 421.674C131.085 417.623 138.423 413.984 145.175 411.379C151.947 408.767 158.044 407.229 162.881 407.303L162.896 406.303L162.912 405.303C157.69 405.224 151.307 406.87 144.455 409.513C137.585 412.163 130.158 415.85 122.822 419.926C108.149 428.078 93.7624 437.831 84.7935 444.097L85.3662 444.917ZM503.453 406.304L503.468 407.304C508.306 407.23 514.403 408.768 521.174 411.38C527.927 413.985 535.264 417.624 542.556 421.674C557.137 429.776 571.457 439.482 580.41 445.736L580.982 444.917L581.555 444.097C572.586 437.831 558.2 428.078 543.527 419.926C536.191 415.85 528.764 412.164 521.894 409.514C515.043 406.871 508.66 405.225 503.438 405.304L503.453 406.304ZM580.982 444.917L580.41 445.736C590.074 452.486 602.949 462.654 611.253 474.218C615.402 479.996 618.368 486.064 619.261 492.183C620.15 498.27 618.997 504.46 614.816 510.551L615.641 511.117L616.465 511.683C620.938 505.166 622.2 498.468 621.24 491.894C620.284 485.349 617.136 478.981 612.878 473.051C604.369 461.202 591.263 450.877 581.555 444.097L580.982 444.917ZM615.641 511.117V512.117H615.685V511.117V510.117H615.641V511.117ZM615.685 511.117L614.861 510.55C607.085 521.845 594.33 523.734 580.65 521.42C566.974 519.107 552.692 512.633 542.324 507.624L541.889 508.525L541.454 509.425C551.819 514.433 566.33 521.027 580.317 523.392C594.299 525.757 608.075 523.934 616.508 511.684L615.685 511.117ZM541.889 508.525L542.322 507.624C529.468 501.438 506.263 489.286 494.266 481.974L493.745 482.828L493.225 483.682C505.299 491.041 528.569 503.224 541.455 509.426L541.889 508.525ZM493.745 482.828L494.266 481.974C475.323 470.413 466.348 451.809 467.721 436.137C468.407 428.311 471.667 421.216 477.549 416.027C483.433 410.838 492.018 407.488 503.469 407.304L503.453 406.304L503.437 405.304C491.607 405.494 482.534 408.964 476.226 414.527C469.918 420.091 466.454 427.682 465.729 435.962C464.28 452.501 473.732 471.785 493.224 483.681L493.745 482.828ZM516.388 311.112L516.902 311.969C521.041 309.488 527.08 307.772 534.244 306.648C541.386 305.529 549.556 305.011 557.893 304.874C574.565 304.601 591.821 305.849 602.705 306.793L602.791 305.796L602.877 304.8C591.974 303.855 574.637 302.599 557.86 302.875C549.472 303.012 541.202 303.533 533.934 304.673C526.686 305.809 520.344 307.574 515.873 310.254L516.388 311.112ZM602.791 305.796L602.704 306.793C614.45 307.823 630.685 310.195 643.659 316.059C650.141 318.989 655.744 322.761 659.577 327.612C663.392 332.439 665.489 338.374 664.916 345.738L665.913 345.816L666.91 345.893C667.523 338.015 665.266 331.584 661.146 326.372C657.046 321.183 651.135 317.243 644.483 314.237C631.189 308.229 614.676 305.835 602.878 304.8L602.791 305.796ZM665.913 345.816L666.62 346.523L666.664 346.479L665.957 345.772L665.25 345.065L665.206 345.109L665.913 345.816ZM665.957 345.772L664.96 345.694C663.885 359.369 653.781 367.379 640.774 372.213C627.771 377.045 612.163 378.577 600.696 379.434L600.771 380.431L600.845 381.428C612.307 380.572 628.173 379.029 641.47 374.087C654.764 369.147 665.788 360.684 666.954 345.85L665.957 345.772ZM600.771 380.431L600.697 379.434C586.437 380.487 560.293 381.583 546.239 381.232L546.214 382.232L546.189 383.232C560.336 383.584 586.552 382.484 600.844 381.428L600.771 380.431ZM546.214 382.232L546.237 381.232C524.07 380.713 507.008 369.083 500.366 354.816C497.05 347.692 496.326 339.913 498.826 332.476C501.325 325.039 507.082 317.847 516.901 311.97L516.388 311.112L515.874 310.254C505.729 316.325 499.609 323.866 496.93 331.839C494.25 339.813 495.044 348.123 498.553 355.66C505.562 370.715 523.377 382.697 546.19 383.232L546.214 382.232ZM63.5391 305.796L63.6254 306.793C74.5095 305.849 91.7648 304.601 108.437 304.874C116.774 305.011 124.944 305.529 132.087 306.648C139.25 307.772 145.289 309.488 149.428 311.969L149.942 311.112L150.457 310.254C145.986 307.574 139.644 305.809 132.396 304.673C125.128 303.533 116.858 303.012 108.47 302.875C91.693 302.599 74.3562 303.855 63.4527 304.8L63.5391 305.796ZM149.942 311.112L149.429 311.97C159.248 317.847 165.005 325.039 167.504 332.476C170.004 339.913 169.28 347.692 165.964 354.816C159.322 369.083 142.26 380.713 120.093 381.232L120.116 382.232L120.14 383.232C142.953 382.697 160.768 370.715 167.777 355.66C171.286 348.123 172.08 339.813 169.4 331.839C166.721 323.866 160.601 316.325 150.456 310.254L149.942 311.112ZM120.116 382.232L120.091 381.232C106.037 381.583 79.8936 380.487 65.6332 379.434L65.5596 380.431L65.4859 381.428C79.7777 382.484 105.994 383.584 120.141 383.232L120.116 382.232ZM65.5596 380.431L65.6341 379.434C54.1668 378.577 38.5595 377.045 25.5562 372.212C12.5489 367.378 2.44462 359.369 1.36997 345.693L0.373047 345.771L-0.62388 345.849C0.541722 360.683 11.5659 369.147 24.8595 374.087C38.157 379.029 54.0228 380.572 65.4851 381.428L65.5596 380.431ZM0.373047 345.771L-0.33406 346.478L-0.290115 346.522L0.416992 345.815L1.1241 345.108L1.08015 345.064L0.373047 345.771ZM0.416992 345.815L1.41398 345.737C0.841047 338.373 2.93816 332.438 6.75288 327.611C10.5865 322.761 16.1895 318.988 22.6713 316.059C35.6457 310.195 51.88 307.823 63.6264 306.793L63.5391 305.796L63.4517 304.8C51.6537 305.835 35.1411 308.228 21.8476 314.236C15.1956 317.243 9.28442 321.183 5.18378 326.371C1.06427 331.583 -1.1929 338.014 -0.579995 345.893L0.416992 345.815ZM39.5371 177.525L40.4394 177.956C43.6227 171.292 48.4067 167.2 54.1255 164.927C59.8727 162.643 66.6144 162.177 73.6951 162.881C87.8681 164.292 103.117 170.359 113.788 175.355L114.212 174.45L114.636 173.544C103.915 168.525 88.415 162.336 73.8931 160.891C66.6264 160.168 59.5341 160.625 53.3868 163.068C47.2112 165.523 42.0404 169.964 38.6348 177.094L39.5371 177.525ZM114.212 174.45L113.788 175.355C123.685 179.986 139.253 187.535 153.556 196.113C160.708 200.402 167.524 204.937 173.15 209.481C178.793 214.039 183.165 218.549 185.509 222.773L186.384 222.288L187.258 221.802C184.727 217.241 180.116 212.537 174.407 207.926C168.682 203.301 161.78 198.713 154.584 194.398C140.192 185.766 124.55 178.182 114.636 173.544L114.212 174.45ZM186.384 222.288L185.51 222.774C191.085 232.778 192.48 241.885 190.93 249.574C189.38 257.262 184.865 263.634 178.43 268.143C165.542 277.173 144.937 278.714 125.453 268.106L124.975 268.984L124.496 269.862C144.546 280.778 165.978 279.31 179.578 269.781C186.387 265.01 191.228 258.214 192.89 249.969C194.552 241.726 193.016 232.136 187.257 221.801L186.384 222.288ZM124.975 268.984L125.454 268.106C113.106 261.363 90.9962 247.369 79.1943 239.34L78.6318 240.167L78.0693 240.993C89.8999 249.042 112.069 263.075 124.495 269.862L124.975 268.984ZM78.6318 240.167L79.1949 239.34C69.6829 232.859 56.9328 223.726 48.0939 213.04C39.2524 202.352 34.5186 190.369 40.4391 178.001L39.5371 177.569L38.6351 177.137C32.2128 190.554 37.5164 203.391 46.5528 214.315C55.592 225.243 68.5607 234.515 78.0688 240.993L78.6318 240.167ZM39.5371 177.569H40.5371V177.525H39.5371H38.5371V177.569H39.5371ZM552.117 174.45L552.541 175.355C563.213 170.359 578.461 164.292 592.634 162.881C599.715 162.177 606.456 162.643 612.203 164.927C617.922 167.2 622.706 171.292 625.89 177.956L626.792 177.525L627.694 177.094C624.289 169.964 619.118 165.523 612.942 163.068C606.795 160.625 599.703 160.168 592.436 160.891C577.914 162.336 562.414 168.525 551.693 173.544L552.117 174.45ZM626.792 177.525H625.792V177.569H626.792H627.792V177.525H626.792ZM626.792 177.569L625.89 178.001C631.811 190.369 627.077 202.352 618.236 213.04C609.397 223.726 596.647 232.859 587.135 239.34L587.698 240.167L588.261 240.993C597.769 234.515 610.738 225.243 619.777 214.315C628.813 203.391 634.116 190.554 627.694 177.137L626.792 177.569ZM587.698 240.167L587.136 239.34C575.334 247.369 553.224 261.363 540.876 268.106L541.355 268.984L541.835 269.862C554.261 263.075 576.43 249.042 588.261 240.993L587.698 240.167ZM541.355 268.984L540.877 268.106C521.393 278.714 500.788 277.173 487.9 268.143C481.465 263.634 476.95 257.262 475.4 249.574C473.85 241.885 475.246 232.778 480.82 222.774L479.946 222.288L479.073 221.801C473.314 232.136 471.778 241.726 473.44 249.969C475.102 258.214 479.943 265.01 486.752 269.781C500.352 279.31 521.784 280.778 541.834 269.862L541.355 268.984ZM479.946 222.288L480.821 222.773C483.165 218.549 487.537 214.039 493.179 209.481C498.806 204.937 505.622 200.402 512.774 196.113C527.076 187.535 542.644 179.986 552.541 175.355L552.117 174.45L551.693 173.544C541.779 178.182 526.137 185.766 511.745 194.398C504.549 198.713 497.647 203.301 491.923 207.926C486.214 212.537 481.604 217.241 479.072 221.802L479.946 222.288ZM157.559 51.3628L158.125 52.1872C164.216 48.0062 170.404 46.8529 176.492 47.7419C182.609 48.6353 188.678 51.6008 194.455 55.7496C206.019 64.054 216.186 76.9303 222.935 86.5945L223.755 86.022L224.575 85.4494C217.795 75.7412 207.47 62.6341 195.622 54.1251C189.693 49.8672 183.325 46.7185 176.781 45.7629C170.207 44.8028 163.508 46.0656 156.993 50.5383L157.559 51.3628ZM223.755 86.022L222.935 86.5946C229.189 95.5482 238.895 109.868 246.996 124.451C251.047 131.743 254.686 139.081 257.29 145.834C259.902 152.606 261.44 158.703 261.366 163.541L262.366 163.556L263.366 163.571C263.446 158.349 261.799 151.966 259.156 145.114C256.506 138.243 252.82 130.816 248.745 123.48C240.593 108.806 230.84 94.4186 224.575 85.4493L223.755 86.022ZM262.366 163.556L261.366 163.54C261.183 174.992 257.833 183.577 252.643 189.461C247.455 195.344 240.36 198.604 232.535 199.289C216.864 200.663 198.261 191.687 186.7 172.743L185.847 173.264L184.993 173.785C196.889 193.278 216.172 202.731 232.71 201.282C240.989 200.556 248.58 197.092 254.143 190.784C259.707 184.476 263.176 175.402 263.366 163.572L262.366 163.556ZM185.847 173.264L186.701 172.744C179.388 160.746 167.236 137.54 161.051 124.685L160.149 125.119L159.248 125.552C165.45 138.439 177.634 161.71 184.993 173.785L185.847 173.264ZM160.149 125.119L161.05 124.684C156.042 114.315 149.568 100.032 147.255 86.3553C144.942 72.6741 146.831 59.9186 158.126 52.1425L157.559 51.3188L156.992 50.4952C144.742 58.9287 142.919 72.706 145.283 86.6887C147.648 100.676 154.242 115.188 159.249 125.554L160.149 125.119ZM157.559 51.3188H156.559V51.3628H157.559H158.559V51.3188H157.559ZM437.325 86.02L438.145 86.5926C444.894 76.9284 455.061 64.052 466.625 55.7474C472.402 51.5985 478.471 48.6329 484.588 47.7394C490.676 46.8502 496.865 48.0034 502.956 52.1843L503.521 51.3599L504.087 50.5354C497.572 46.0628 490.873 44.8002 484.299 45.7604C477.755 46.7162 471.387 49.8649 465.458 54.1229C453.61 62.6321 443.285 75.7393 436.505 85.4474L437.325 86.02ZM503.521 51.3599H504.521V51.3159H503.521H502.521V51.3599H503.521ZM503.521 51.3159L502.954 52.1396C514.249 59.9156 516.138 72.6711 513.825 86.3523C511.512 100.029 505.038 114.312 500.03 124.681L500.931 125.116L501.831 125.551C506.838 115.185 513.432 100.673 515.797 86.6857C518.161 72.703 516.338 58.9257 504.089 50.4922L503.521 51.3159ZM500.931 125.116L500.03 124.682C493.844 137.537 481.692 160.744 474.379 172.742L475.233 173.262L476.087 173.783C483.447 161.708 495.63 138.437 501.832 125.549L500.931 125.116ZM475.233 173.262L474.38 172.741C462.819 191.685 444.216 200.66 428.545 199.287C420.72 198.601 413.625 195.341 408.436 189.458C403.247 183.574 399.897 174.989 399.714 163.537L398.714 163.553L397.714 163.569C397.904 175.4 401.373 184.473 406.936 190.781C412.5 197.09 420.09 200.554 428.37 201.279C444.908 202.729 464.191 193.276 476.087 173.783L475.233 173.262ZM398.714 163.553L399.714 163.538C399.64 158.701 401.178 152.603 403.79 145.831C406.394 139.078 410.033 131.74 414.084 124.449C422.185 109.866 431.891 95.5462 438.145 86.5927L437.325 86.02L436.505 85.4474C430.24 94.4166 420.487 108.804 412.336 123.477C408.26 130.814 404.574 138.241 401.924 145.111C399.281 151.963 397.634 158.346 397.714 163.568L398.714 163.553ZM286.459 64.189L287.455 64.2763C288.464 52.7698 290.761 36.9531 296.368 24.1134C301.979 11.2661 310.751 1.69536 324.624 1.97489L324.645 0.975098L324.665 -0.0246994C309.583 -0.32858 300.273 10.1742 294.536 23.313C288.794 36.4593 286.476 52.5412 285.463 64.1016L286.459 64.189ZM324.645 0.975098L324.665 1.97489C338.539 1.69483 347.311 11.2655 352.921 24.1128C358.529 36.9526 360.826 52.7697 361.835 64.2763L362.831 64.189L363.827 64.1016C362.814 52.5411 360.496 36.4589 354.754 23.3124C349.016 10.1735 339.707 -0.329158 324.624 -0.0246987L324.645 0.975098ZM362.831 64.189L361.835 64.2753C362.778 75.1599 364.027 92.4158 363.753 109.089C363.616 117.426 363.099 125.596 361.979 132.739C360.856 139.903 359.14 145.943 356.659 150.082L357.517 150.596L358.374 151.11C361.054 146.64 362.819 140.297 363.955 133.049C365.095 125.781 365.615 117.511 365.753 109.122C366.028 92.3441 364.773 75.0065 363.827 64.1026L362.831 64.189ZM357.517 150.596L356.659 150.083C347.818 164.856 335.994 170.459 324.724 169.556L324.645 170.553L324.565 171.55C336.728 172.524 349.218 166.411 358.375 151.11L357.517 150.596ZM324.645 170.553L324.565 169.556C313.295 170.459 301.473 164.855 292.633 150.083L291.774 150.596L290.916 151.11C300.073 166.41 312.562 172.524 324.724 171.55L324.645 170.553ZM291.774 150.596L292.632 150.082C290.151 145.943 288.434 139.903 287.311 132.74C286.191 125.596 285.674 117.427 285.537 109.089C285.263 92.4159 286.512 75.1599 287.455 64.2753L286.459 64.189L285.463 64.1026C284.517 75.0066 283.262 92.3442 283.538 109.122C283.675 117.511 284.196 125.781 285.335 133.049C286.472 140.297 288.237 146.64 290.917 151.11L291.774 150.596Z" fill="black" mask="url(#path-1-inside-1_53_2496)"/>
</svg>
